<svg xmlns="http://www.w3.org/2000/svg" viewBox="0 0 135 40"><title>apple_store</title><path class="ap-bg" d="M130.2 39.1H4.73a3.83 3.83 0 0 1-3.84-3.83V4.72A3.84 3.84 0 0 1 4.73.89H130.2a3.83 3.83 0 0 1 3.8 3.83v30.55a3.83 3.83 0 0 1-3.8 3.83z"/><path class="ap-border" d="M130.2 0H4.73A4.73 4.73 0 0 0 0 4.73v30.54A4.74 4.74 0 0 0 4.73 40H130.2a4.8 4.8 0 0 0 4.8-4.73V4.73A4.8 4.8 0 0 0 130.2 0zm0 39.1H4.73a3.83 3.83 0 0 1-3.84-3.83V4.72A3.84 3.84 0 0 1 4.73.89H130.2a3.83 3.83 0 0 1 3.8 3.83v30.55a3.83 3.83 0 0 1-3.8 3.83z"/><path d="M30.13 19.78a5.8 5.8 0 0 1 2.76-4.86 5.94 5.94 0 0 0-4.68-2.53c-2-.21-3.87 1.18-4.88 1.18s-2.57-1.16-4.23-1.12a6.23 6.23 0 0 0-5.24 3.2c-2.27 3.92-.58 9.69 1.6 12.86 1.09 1.55 2.35 3.29 4 3.23s2.23-1 4.19-1 2.51 1 4.21 1 2.84-1.56 3.89-3.13a12.83 12.83 0 0 0 1.78-3.62 5.6 5.6 0 0 1-3.4-5.21zm-3.2-9.47a5.71 5.71 0 0 0 1.31-4.09 5.81 5.81 0 0 0-3.76 1.94 5.43 5.43 0 0 0-1.34 3.94 4.8 4.8 0 0 0 3.79-1.79zm19.76 7.89l-4.28 13.3h2.21l1.19-3.91h4.32l1.24 3.91h2.27l-4.3-13.3zm-.51 7.8l1.1-3.48q.44-1.66.63-2.51.49 2 .67 2.51L49.76 26zm14.51-4.29a3.55 3.55 0 0 0-3.24 1.72l-.12-1.52h-1.91q.08 1.62.08 3.16v10.34h2.13v-5.05a2.94 2.94 0 0 0 2.73 1.36 3.87 3.87 0 0 0 2.94-1.26 5.45 5.45 0 0 0 1.32-3.87 5.29 5.29 0 0 0-1.14-3.54 3.56 3.56 0 0 0-2.79-1.34zm1.13 7.4a2.18 2.18 0 0 1-1.87.93 2.13 2.13 0 0 1-1.67-.72 2.56 2.56 0 0 1-.64-1.77V26a2.79 2.79 0 0 1 .1-.65 2.43 2.43 0 0 1 .84-1.37 2.22 2.22 0 0 1 1.42-.57 2.18 2.18 0 0 1 1.86.95 4 4 0 0 1 .63 2.31 4.08 4.08 0 0 1-.67 2.44zm9.91-7.4a3.55 3.55 0 0 0-3.24 1.72l-.12-1.52h-1.91q.08 1.62.08 3.16v10.34h2.13v-5.05a2.94 2.94 0 0 0 2.72 1.36 3.86 3.86 0 0 0 2.94-1.26 5.45 5.45 0 0 0 1.32-3.87 5.3 5.3 0 0 0-1.13-3.54 3.57 3.57 0 0 0-2.79-1.34zm1.12 7.4A2.18 2.18 0 0 1 71 30a2.13 2.13 0 0 1-1.67-.72 2.57 2.57 0 0 1-.64-1.77V26a2.85 2.85 0 0 1 .1-.65 2.42 2.42 0 0 1 .84-1.37 2.22 2.22 0 0 1 1.37-.57 2.18 2.18 0 0 1 1.85.95 4 4 0 0 1 .63 2.31 4.08 4.08 0 0 1-.63 2.44zm11.85-5.26a6.91 6.91 0 0 1-1.94-1 1.63 1.63 0 0 1-.61-1.3 1.58 1.58 0 0 1 .53-1.21 2.58 2.58 0 0 1 1.76-.55 5.24 5.24 0 0 1 2.55.61l.53-1.74a6.46 6.46 0 0 0-3-.63 4.83 4.83 0 0 0-3.26 1A3.38 3.38 0 0 0 80 21.74q0 2.51 3.49 3.82a5.14 5.14 0 0 1 1.84 1 1.85 1.85 0 0 1 .55 1.36 1.78 1.78 0 0 1-.67 1.45 2.91 2.91 0 0 1-1.88.54 5.84 5.84 0 0 1-3.08-.85l-.49 1.78a6.35 6.35 0 0 0 3.45.83 5.24 5.24 0 0 0 3.63-1.16A3.55 3.55 0 0 0 88 27.77a3.38 3.38 0 0 0-.81-2.31 6.57 6.57 0 0 0-2.49-1.61zm8.04-4.33l-2.09.63v1.76h-1.4v1.6h1.4v4.84a3.78 3.78 0 0 0 .71 2.59 2.56 2.56 0 0 0 2 .77 4.83 4.83 0 0 0 1.64-.25l-.06-1.62a3.79 3.79 0 0 1-.95.1q-1.25 0-1.24-1.78v-4.65h2.35v-1.6h-2.36zm8.33 2.19a4.47 4.47 0 0 0-3.48 1.42 5.21 5.21 0 0 0-1.29 3.65 5.1 5.1 0 0 0 1.25 3.53 4.29 4.29 0 0 0 3.36 1.4 4.51 4.51 0 0 0 3.52-1.46 5.26 5.26 0 0 0 1.26-3.63 5 5 0 0 0-1.23-3.51 4.38 4.38 0 0 0-3.39-1.4zm1.82 7.29A2.18 2.18 0 0 1 99 29a4.31 4.31 0 0 1-.57-2.28 4.4 4.4 0 0 1 .57-2.3 2.14 2.14 0 0 1 2-1.15 2.11 2.11 0 0 1 1.91 1.15 4.79 4.79 0 0 1 0 4.57zm7.66-6.78a3.28 3.28 0 0 0-1.07 1.52h-.06l-.08-1.84h-1.86q.08 1.36.08 3v6.57h2.13v-5a3.19 3.19 0 0 1 .53-1.9 2 2 0 0 1 1.74-.85 3.7 3.7 0 0 1 .67.06v-2a3.42 3.42 0 0 0-.53 0 2.58 2.58 0 0 0-1.55.44zm7.62-.53a4.09 4.09 0 0 0-3.36 1.54 5.5 5.5 0 0 0-1.19 3.61 4.85 4.85 0 0 0 1.27 3.52 4.66 4.66 0 0 0 3.51 1.31 8 8 0 0 0 3.22-.59l-.33-1.48a7.07 7.07 0 0 1-2.59.45 3.17 3.17 0 0 1-2.09-.67 2.78 2.78 0 0 1-.93-2.17h6.4a5 5 0 0 0 .08-1 5.19 5.19 0 0 0-.85-3 3.58 3.58 0 0 0-3.14-1.52zM116.31 24a2 2 0 0 1 1.7-.87 1.86 1.86 0 0 1 1.7.89 2.9 2.9 0 0 1 .41 1.64h-4.44a3.18 3.18 0 0 1 .63-1.66zM48 12.67A3.28 3.28 0 0 0 49 10a3 3 0 0 0-1-2.42 3.89 3.89 0 0 0-2.59-.75 11.32 11.32 0 0 0-1.8.14v6.43a12.9 12.9 0 0 0 1.53.08 4.21 4.21 0 0 0 2.86-.81zm-3.28-4.93a4.43 4.43 0 0 1 .84-.07 2.39 2.39 0 0 1 1.77.61 2.39 2.39 0 0 1 .62 1.72 2.68 2.68 0 0 1-.66 2 2.48 2.48 0 0 1-1.86.67 5.53 5.53 0 0 1-.71 0zm7.92.88a2.2 2.2 0 0 0-1.71.7 2.56 2.56 0 0 0-.64 1.79 2.51 2.51 0 0 0 .61 1.74 2.11 2.11 0 0 0 1.65.69 2.22 2.22 0 0 0 1.73-.72 2.59 2.59 0 0 0 .63-1.82 2.49 2.49 0 0 0-.6-1.73 2.16 2.16 0 0 0-1.67-.65zm.89 3.58a1 1 0 0 1-.94.57 1.06 1.06 0 0 1-1-.56 2.13 2.13 0 0 1-.28-1.12 2.16 2.16 0 0 1 .33-1.09 1.05 1.05 0 0 1 1-.56 1 1 0 0 1 .94.56 2.13 2.13 0 0 1 .28 1.12 2.12 2.12 0 0 1-.33 1.08zm4.76 1.23l.65-2a11.15 11.15 0 0 0 .38-1.52 15.32 15.32 0 0 0 .38 1.52l.61 2h1l1.47-4.71h-1l-.57 2.2a14.82 14.82 0 0 0-.32 1.55q-.15-.75-.38-1.55l-.64-2.2h-.85L58.27 11q-.27.91-.39 1.5-.13-.72-.32-1.51L57 8.72h-1.07l1.39 4.71zm4.48-4.71zm4.38 2.01v2.7h1v-2.82A2.07 2.07 0 0 0 67.66 9a1.5 1.5 0 0 0-1.1-.43 1.77 1.77 0 0 0-.95.27 1.51 1.51 0 0 0-.54.57v-.74h-.92v4.72h1v-2.8a1.22 1.22 0 0 1 .29-.81 1 1 0 0 1 .76-.34q.95.04.95 1.29zm2.89-4.17h1.05v6.88h-1.05zM75 8.62a2.2 2.2 0 0 0-1.71.7 2.56 2.56 0 0 0-.64 1.79 2.51 2.51 0 0 0 .61 1.74 2.1 2.1 0 0 0 1.65.69 2.22 2.22 0 0 0 1.73-.72 2.59 2.59 0 0 0 .62-1.82 2.49 2.49 0 0 0-.6-1.73A2.16 2.16 0 0 0 75 8.62zm.89 3.58a1 1 0 0 1-.94.57 1.06 1.06 0 0 1-1-.56 2.13 2.13 0 0 1-.28-1.12A2.16 2.16 0 0 1 74 10a1 1 0 0 1 1-.56 1 1 0 0 1 .94.56 2.13 2.13 0 0 1 .28 1.12 2.11 2.11 0 0 1-.34 1.08zm5.39.69l.08.54h.94a7.36 7.36 0 0 1-.07-1.12v-1.74q0-1.95-1.85-2a3 3 0 0 0-1.59.43l.21.69a2.19 2.19 0 0 1 1.23-.35q1 0 1 .93v.09a3.75 3.75 0 0 0-2 .45 1.46 1.46 0 0 0-.72 1.32 1.34 1.34 0 0 0 .37 1 1.42 1.42 0 0 0 1.08.43 1.61 1.61 0 0 0 1.32-.67zM79.51 12q0-1 1.73-1v.73a.89.89 0 0 1-.38.74 1.06 1.06 0 0 1-.64.22.73.73 0 0 1-.51-.18.71.71 0 0 1-.2-.51zm8.74-5.44h-1v2.7a1.41 1.41 0 0 0-1.33-.64 1.88 1.88 0 0 0-1.46.66 2.73 2.73 0 0 0-.61 1.85 2.61 2.61 0 0 0 .56 1.74 1.77 1.77 0 0 0 1.42.67 1.57 1.57 0 0 0 1.51-.86v.76h.93v-1.27zm-1 4.89a1.29 1.29 0 0 1-.3.86 1 1 0 0 1-.83.39 1.08 1.08 0 0 1-.92-.46 1.86 1.86 0 0 1-.32-1.14 2 2 0 0 1 .34-1.19 1.08 1.08 0 0 1 .92-.47 1 1 0 0 1 .7.26 1.19 1.19 0 0 1 .38.64 1.54 1.54 0 0 1 0 .33zm7.65 2.09a2.21 2.21 0 0 0 1.73-.72 2.59 2.59 0 0 0 .62-1.82 2.49 2.49 0 0 0-.6-1.73A2.15 2.15 0 0 0 95 8.62a2.2 2.2 0 0 0-1.71.7 2.56 2.56 0 0 0-.64 1.79 2.51 2.51 0 0 0 .62 1.74 2.11 2.11 0 0 0 1.63.69zM94 10a1.05 1.05 0 0 1 1-.56 1 1 0 0 1 .94.56 2.13 2.13 0 0 1 .28 1.12 2.13 2.13 0 0 1-.29 1.13 1.07 1.07 0 0 1-1.89 0 2.13 2.13 0 0 1-.28-1.12A2.16 2.16 0 0 1 94 10zm4.79 3.43h1v-2.8a1.21 1.21 0 0 1 .29-.81.94.94 0 0 1 .76-.34q1 0 1 1.25v2.7h1v-2.82a2.07 2.07 0 0 0-.5-1.61 1.5 1.5 0 0 0-1.1-.43 1.77 1.77 0 0 0-1 .27 1.53 1.53 0 0 0-.54.57v-.74h-.92v1.35zm8.96-1.55a1.85 1.85 0 0 0 .35 1.27 1.25 1.25 0 0 0 1 .38 2.35 2.35 0 0 0 .81-.12v-.8a1.84 1.84 0 0 1-.47 0c-.41 0-.61-.29-.61-.87V9.5h1.15v-.78h-1.15V7.54l-1 .31v.86h-.69v.79h.69zm6.68-1.13v2.68h1v-2.8A2.15 2.15 0 0 0 115 9a1.46 1.46 0 0 0-1.08-.43 1.58 1.58 0 0 0-1.42.77V6.56h-1v6.88h1V10.6a1.32 1.32 0 0 1 0-.38 1 1 0 0 1 1-.73q.94-.01.93 1.26zm4.93 2.77a4 4 0 0 0 1.58-.29l-.16-.73a3.47 3.47 0 0 1-1.27.22 1.56 1.56 0 0 1-1-.33 1.37 1.37 0 0 1-.45-1.07h3.14a2.53 2.53 0 0 0 0-.47 2.52 2.52 0 0 0-.42-1.48 1.75 1.75 0 0 0-1.54-.76 2 2 0 0 0-1.65.76 2.7 2.7 0 0 0-.58 1.78 2.38 2.38 0 0 0 .63 1.73 2.28 2.28 0 0 0 1.72.64zm-1-3.75a1 1 0 0 1 .83-.43.92.92 0 0 1 .83.44 1.41 1.41 0 0 1 .2.8H118a1.59 1.59 0 0 1 .34-.81z"/></svg>
