<?xml version="1.0" encoding="UTF-8" standalone="no"?>
<svg width="45px" height="45px" viewBox="0 0 45 45" version="1.1" xmlns="http://www.w3.org/2000/svg" xmlns:xlink="http://www.w3.org/1999/xlink">
    <!-- Generator: Sketch 42 (36781) - http://www.bohemiancoding.com/sketch -->
    <title>facebook-square</title>
    <desc>Created with Sketch.</desc>
    <defs></defs>
    <g id="Desktop" stroke="none" stroke-width="1" fill="none" fill-rule="evenodd">
        <g id="Desktop-HD" transform="translate(-50.000000, -2770.000000)" fill-rule="nonzero" fill="#FFFFFF">
            <g id="Screen-3" transform="translate(-660.000000, 1222.000000)">
                <g id="facebook-square" transform="translate(710.000000, 1548.000000)">
                    <path d="M36.5625,0 C38.8867188,0 40.8740234,0.825195313 42.5244141,2.47558594 C44.1748047,4.12597656 45,6.11328125 45,8.4375 L45,36.5625 C45,38.8867187 44.1748047,40.8740234 42.5244141,42.5244141 C40.8740234,44.1748047 38.8867188,45 36.5625,45 L31.0546875,45 L31.0546875,27.5683594 L36.8847656,27.5683594 L37.7636719,20.7714844 L31.0546875,20.7714844 L31.0546875,16.4355469 C31.0546875,15.3417969 31.2841797,14.5214844 31.7431641,13.9746094 C32.2021484,13.4277344 33.0957031,13.1542969 34.4238281,13.1542969 L37.9980469,13.125 L37.9980469,7.06054688 C36.7675781,6.88476562 35.0292969,6.796875 32.7832031,6.796875 C30.1269531,6.796875 28.0029297,7.578125 26.4111328,9.140625 C24.8193359,10.703125 24.0234375,12.9101562 24.0234375,15.7617188 L24.0234375,20.7714844 L18.1640625,20.7714844 L18.1640625,27.5683594 L24.0234375,27.5683594 L24.0234375,45 L8.4375,45 C6.11328125,45 4.12597656,44.1748047 2.47558594,42.5244141 C0.825195313,40.8740234 0,38.8867187 0,36.5625 L0,8.4375 C0,6.11328125 0.825195313,4.12597656 2.47558594,2.47558594 C4.12597656,0.825195313 6.11328125,0 8.4375,0 L36.5625,0 Z" id="Shape"></path>
                </g>
            </g>
        </g>
    </g>
</svg>