<svg xmlns="http://www.w3.org/2000/svg" viewBox="0 0 45 45">
    <title>
        facebook
    </title>
    <path class="cls-1" d="M36.56 0a8.13 8.13 0 0 1 6 2.48 8.13 8.13 0 0 1 2.48 6v28.08A8.45 8.45 0 0 1 36.56 45h-5.51V27.57h5.83l.88-6.8h-6.71v-4.33a3.76 3.76 0 0 1 .69-2.44 3.42 3.42 0 0 1 2.68-.82h3.57V7.06a39.27 39.27 0 0 0-5.21-.26 8.7 8.7 0 0 0-6.37 2.34A8.86 8.86 0 0 0 24 15.76v5h-5.84v6.8H24V45H8.44a8.13 8.13 0 0 1-6-2.48 8.13 8.13 0 0 1-2.48-6V8.44a8.13 8.13 0 0 1 2.48-6 8.13 8.13 0 0 1 6-2.44z" data-name="Layer 1"/>
</svg>
