<svg xmlns="http://www.w3.org/2000/svg" viewBox="0 0 2063.89 1848.2"><defs><style>.cls-1,.cls-11,.cls-12,.cls-13,.cls-2,.cls-3,.cls-4,.cls-5,.cls-6,.cls-7,.cls-8,.cls-9{fill:#fff;}.cls-2{opacity:0.6;}.cls-2,.cls-3,.cls-4,.cls-5,.cls-6,.cls-7,.cls-8,.cls-9{isolation:isolate;}.cls-3{opacity:0.7;}.cls-4{opacity:0.5;}.cls-5{opacity:0.8;}.cls-6{opacity:0.4;}.cls-7{opacity:0.9;}.cls-8{opacity:0.75;}.cls-9{opacity:0.3;}.cls-10{opacity:0.43;}.cls-11{opacity:0.7;}.cls-12{opacity:0.6;}.cls-13{opacity:0.4;}</style></defs><title>Fullsquares</title><g id="Layer_2" data-name="Layer 2"><g id="Layer_1-2" data-name="Layer 1"><g id="Layer_2-2" data-name="Layer 2"><g id="Layer_1-2-2" data-name="Layer 1-2"><path id="Rectangle-3-Copy" class="cls-1" d="M13,1195.35H236v223.22H13Z"/><path id="Rectangle-3-Copy-2" class="cls-2" d="M137.95,962.33H361v223.22h-223Z"/><path id="Rectangle-3-Copy-3" class="cls-2" d="M244.09,1195.86h183v183.2h-183Z"/><path id="Rectangle-3-Copy-12" class="cls-1" d="M244.89,1388H428.74v184H244.89Z"/><path id="Rectangle-3-Copy-24" class="cls-2" d="M439.69,1460.88H550.55v110.95H439.69Z"/><path id="Rectangle-3-Copy-53" class="cls-3" d="M559.36,1518.8l82.12,0,0,82.12-82.12,0"/><path id="Rectangle-3-Copy-31" class="cls-3" d="M568,1355.73l57.66,0,0,57.65-57.66,0"/><path id="Rectangle-3-Copy-37" class="cls-3" d="M566.93,1307.86h41.81l0,41.8-41.81,0"/><path id="Rectangle-3-Copy-32" class="cls-2" d="M678.92,1239.46h25.49V1265H678.92Z"/><path id="Rectangle-3-Copy-46" class="cls-4" d="M655.27,1387.18h32.78V1420H655.27Z"/><path id="Rectangle-3-Copy-40" class="cls-2" d="M570.14,1420.53h32.8v32.8h-32.8"/><path id="Rectangle-3-Copy-43" class="cls-5" d="M461.6,1580.54l49,0,0,49-49,0"/><path id="Rectangle-3-Copy-44" class="cls-5" d="M460.29,1635.86h48.93v49H460.29Z"/><path id="Rectangle-3-Copy-54" class="cls-3" d="M539.26,1657.26l37.72,0V1695l-37.73,0"/><path id="Rectangle-3-Copy-56" class="cls-3" d="M599.13,1620.54h25v25h-25Z"/><path id="Rectangle-3-Copy-55" class="cls-5" d="M479.67,1714.26h33.27v33.3H479.67Z"/><path id="Rectangle-3-Copy-57" class="cls-3" d="M518,1583.34h33.27v33.3H518Z"/><path id="Rectangle-3-Copy-87" class="cls-3" d="M520.51,1627.11h33.27v33.3H520.51Z"/><path id="Rectangle-3-Copy-45" class="cls-3" d="M559.47,1462.08l49,0,0,49-49,0"/><path id="Rectangle-3-Copy-33" class="cls-2" d="M619,1317.58H642v22.95H619Z"/><path id="Rectangle-3-Copy-34" class="cls-4" d="M735.93,1270.18h10.25v10.26H735.93Z"/><path id="Rectangle-3-Copy-39" class="cls-2" d="M678.9,1329.78h10.25V1340H678.9Z"/><path id="Rectangle-3-Copy-64" class="cls-2" d="M696.86,1458.49h10.25v10.26H696.86Z"/><path id="Rectangle-3-Copy-60" class="cls-2" d="M654.43,1354.25h10.25v10.26H654.43Z"/><path id="Rectangle-3-Copy-52" class="cls-4" d="M657,1480.39H667.2v10.26H657Z"/><path id="Rectangle-3-Copy-62" class="cls-4" d="M820.5,1280.81h10.25v10.26H820.5Z"/><path id="Rectangle-3-Copy-47" class="cls-2" d="M618.6,1428.67h27.51v27.54H618.6Z"/><path id="Rectangle-3-Copy-35" class="cls-6" d="M792.24,1152.11h10.25v10.26H792.24Z"/><path id="Rectangle-3-Copy-88" class="cls-6" d="M763.93,1123.81h10.25v10.26H763.93Z"/><path id="Rectangle-3-Copy-36" class="cls-4" d="M765.18,1225.49h10.25v10.26H765.18Z"/><path id="Rectangle-3-Copy-25" class="cls-7" d="M270.55,1581.1H454.4v184H270.55Z"/><path id="Rectangle-3-Copy-14" class="cls-5" d="M435.21,1324.55l126.42-.05-.06,126.42-126.42.05"/><path id="Rectangle-3-Copy-13" class="cls-1" d="M28.43,1432.08H233.27v205H28.43Z"/><path id="Rectangle-3-Copy-4" class="cls-8" d="M368.27,1048.54H506.46v138.31H368.27Z"/><path id="Rectangle-3-Copy-5" class="cls-5" d="M434.66,1195.78l121.19-.05,0,121.19-121.19.05"/><path id="Rectangle-3-Copy-6" class="cls-5" d="M512.5,1117.93l71.11,0,0,71.1-71.1,0"/><path id="Rectangle-3-Copy-7" class="cls-2" d="M513.26,1060.57l51.62,0,0,51.62-51.62,0"/><path id="Rectangle-3-Copy-41" class="cls-1" d="M370,990.19h51.61v51.64H370Z"/><path id="Rectangle-3-Copy-66" class="cls-1" d="M43.28,1098.44h84.85v84.92H43.28Z"/><path id="Rectangle-3-Copy-27" class="cls-2" d="M565.82,1242.16l60.58,0,0,60.58-60.58,0"/><path id="Rectangle-3-Copy-38" class="cls-4" d="M798.08,1233.76h8.8v8.81h-8.8Z"/><path id="Rectangle-3-Copy-28" class="cls-2" d="M676.61,1177.68h29.54v29.56H676.61Z"/><path id="Rectangle-3-Copy-29" class="cls-2" d="M676.06,1281.15h21.1v21.12h-21.1Z"/><path id="Rectangle-3-Copy-61" class="cls-2" d="M736.52,1380.23h21.1v21.12h-21.1Z"/><path id="Rectangle-3-Copy-92" class="cls-2" d="M702.15,1352.84h16.61v16.62H702.15Z"/><path id="Rectangle-3-Copy-15" class="cls-2" d="M626.64,1158.17h30.71v30.74H626.64Z"/><path id="Rectangle-3-Copy-16" class="cls-3" d="M566.64,1197.59l37.41,0,0,37.41h-37.4"/><path id="Rectangle-3-Copy-8" class="cls-2" d="M642.07,1219.93h20.38v20.4H642.07Z"/><path id="Rectangle-3-Copy-21" class="cls-6" d="M783.86,1188.8h6.38v6.39h-6.38Z"/><path id="Rectangle-3-Copy-63" class="cls-6" d="M782.51,1329.09h6.38v6.39h-6.38Z"/><path id="Rectangle-3-Copy-65" class="cls-6" d="M705.24,1429.52h6.38v6.39h-6.38Z"/><path id="Rectangle-3-Copy-49" class="cls-4" d="M775.43,1269.27h6.38v6.39h-6.38Z"/><path id="Rectangle-3-Copy-30" class="cls-9" d="M818.44,1128.49h6.78v6.79h-6.78Z"/><path id="Rectangle-3-Copy-70" class="cls-9" d="M862.22,1089.86H869v6.79h-6.78Z"/><path id="Rectangle-3-Copy-90" class="cls-9" d="M728.34,1123.38h6.78v6.79h-6.78Z"/><path id="Rectangle-3-Copy-67" class="cls-9" d="M859,1072.48h2.92v2.92H859"/><path id="Rectangle-3-Copy-91" class="cls-9" d="M767.59,1148.47h2.92v2.92h-2.92"/><path id="Rectangle-3-Copy-68" class="cls-9" d="M848,1127.19h4.21v4.21H848"/><path id="Rectangle-3-Copy-69" class="cls-9" d="M843.56,1085.36h2.92v2.92h-2.92"/><path id="Rectangle-3-Copy-42" class="cls-9" d="M826.7,1104.79h3.15v3.15H826.7Z"/><path id="Rectangle-3-Copy-51" class="cls-9" d="M824.11,1153.7h3.15v3.15h-3.15Z"/><path id="Rectangle-3-Copy-89" class="cls-9" d="M795.8,1122.82H799V1126H795.8Z"/><path id="Rectangle-3-Copy-26" class="cls-6" d="M833.9,1182.5h11.85v11.86H833.9Z"/><path id="Rectangle-3-Copy-48" class="cls-4" d="M726.43,1326.66h11.85v11.86H726.43Z"/><path id="Rectangle-3-Copy-22" class="cls-2" d="M679.85,1125.56H691.7v11.86H679.85Z"/><path id="Rectangle-3-Copy-23" class="cls-4" d="M732.59,1178.31h11.85v11.86H732.59Z"/><path id="Rectangle-3-Copy-50" class="cls-6" d="M837.75,1219.83H849.6v11.86H837.75Z"/><g id="Group-4" class="cls-10"><path id="Rectangle-3-Copy-73" class="cls-4" d="M625,494.24h10.25V504.5H625Z"/><path id="Rectangle-3-Copy-74" class="cls-6" d="M651.94,624.22h10.25v10.26H651.94Z"/><path id="Rectangle-3-Copy-75" class="cls-4" d="M679,550.85h10.25V561.1H679Z"/><path id="Rectangle-3-Copy-76" class="cls-4" d="M647.55,544h8.8v8.81h-8.8Z"/><path id="Rectangle-3-Copy-77" class="cls-6" d="M665.48,590.12h6.38v6.39h-6.38Z"/><path id="Rectangle-3-Copy-78" class="cls-9" d="M604.76,650h6.78v6.79h-6.78Z"/><path id="Rectangle-3-Copy-79" class="cls-9" d="M586.72,688.67h6.78v6.79h-6.78Z"/><path id="Rectangle-3-Copy-80" class="cls-9" d="M605.72,716.69H602.8v-2.92h2.92"/><path id="Rectangle-3-Copy-81" class="cls-9" d="M633.38,743.06h-4.21v-4.21h4.21"/><path id="Rectangle-3-Copy-82" class="cls-9" d="M635.33,710.24H632.4v-2.92h2.92"/><path id="Rectangle-3-Copy-83" class="cls-9" d="M620.72,682.52h3.15v3.15h-3.15Z"/><path id="Rectangle-3-Copy-84" class="cls-9" d="M627.18,629.75h3.15v3.15h-3.15Z"/><path id="Rectangle-3-Copy-85" class="cls-6" d="M608.68,592.23h11.85V604.1H608.68Z"/><path id="Rectangle-3-Copy-86" class="cls-6" d="M606.12,553.62H618v11.86H606.12Z"/></g><path id="Rectangle-3-Copy-10" class="cls-3" d="M590,1120.21h32v32H590Z"/><path id="Rectangle-3-Copy-17" class="cls-2" d="M633.29,1277.6h25v25h-25Z"/><path id="Rectangle-3-Copy-18" class="cls-2" d="M635.93,1118h25v25h-25Z"/><path id="Rectangle-3-Copy-20" class="cls-2" d="M611.72,1216.84h16.75v16.76H611.72Z"/><path id="Rectangle-3-Copy-19" class="cls-2" d="M720,1149.72h14.17v14.19H720Z"/><path id="Rectangle-3-Copy-11" class="cls-2" d="M588.67,1157.55h32l0,32h-32"/><path id="Rectangle-3-Copy-9" class="cls-4" d="M720.85,1218.35H751v30.19H720.85Z"/></g></g><g id="Layer_2-3" data-name="Layer 2"><g id="Layer_1-2-3" data-name="Layer 1-2"><path id="Rectangle-3-Copy-2-2" data-name="Rectangle-3-Copy" class="cls-1" d="M2063.89,1319.54H1723.65V979h340.25Z"/><path id="Rectangle-3-Copy-2-3" data-name="Rectangle-3-Copy-2" class="cls-2" d="M1873.27,964.05H1533V623.51h340.25Z"/><path id="Rectangle-3-Copy-3-2" data-name="Rectangle-3-Copy-3" class="cls-2" d="M1711.35,1259.26H1432.1V979.78h279.24Z"/><path id="Rectangle-3-Copy-12-2" data-name="Rectangle-3-Copy-12" class="cls-1" d="M1710.13,1553.67H1429.65V1273h280.47Z"/><path id="Rectangle-3-Copy-24-2" data-name="Rectangle-3-Copy-24" class="cls-2" d="M1413,1553.35H1243.83V1384.09H1413Z"/><path id="Rectangle-3-Copy-53-2" data-name="Rectangle-3-Copy-53" class="cls-3" d="M1230.42,1597.71l-125.27,0,0-125.27,125.27.06"/><path id="Rectangle-3-Copy-31-2" data-name="Rectangle-3-Copy-31" class="cls-3" d="M1217.18,1311.64l-88,0,0-88,88,0"/><path id="Rectangle-3-Copy-37-2" data-name="Rectangle-3-Copy-37" class="cls-3" d="M1218.85,1214.43l-63.78,0,0-63.77,63.78,0"/><path id="Rectangle-3-Copy-32-2" data-name="Rectangle-3-Copy-32" class="cls-2" d="M1048,1085.22h-38.89V1046.3H1048Z"/><path id="Rectangle-3-Copy-46-2" data-name="Rectangle-3-Copy-46" class="cls-4" d="M1084.06,1321.71h-50v-50.05h50Z"/><path id="Rectangle-3-Copy-40-2" data-name="Rectangle-3-Copy-40" class="cls-2" d="M1214,1372.57l-50,0,0-50,50,0"/><path id="Rectangle-3-Copy-43-2" data-name="Rectangle-3-Copy-43" class="cls-5" d="M1379.55,1641.31l-74.68,0,0-74.69,74.68,0"/><path id="Rectangle-3-Copy-44-2" data-name="Rectangle-3-Copy-44" class="cls-5" d="M1381.52,1725.74h-74.65V1651h74.65Z"/><path id="Rectangle-3-Copy-54-2" data-name="Rectangle-3-Copy-54" class="cls-3" d="M1261.07,1741.24l-57.56,0,0-57.56,57.55,0"/><path id="Rectangle-3-Copy-56-2" data-name="Rectangle-3-Copy-56" class="cls-3" d="M1169.71,1665.87h-38.17v-38.21h38.17Z"/><path id="Rectangle-3-Copy-55-2" data-name="Rectangle-3-Copy-55" class="cls-5" d="M1351.95,1821.45h-50.76v-50.8h50.76Z"/><path id="Rectangle-3-Copy-57-2" data-name="Rectangle-3-Copy-57" class="cls-3" d="M1293.52,1621.71h-50.76v-50.8h50.76Z"/><path id="Rectangle-3-Copy-87-2" data-name="Rectangle-3-Copy-87" class="cls-3" d="M1289.64,1688.48h-50.76v-50.8h50.76Z"/><path id="Rectangle-3-Copy-45-2" data-name="Rectangle-3-Copy-45" class="cls-3" d="M1230.24,1460.6l-74.68,0,0-74.69,74.68,0"/><path id="Rectangle-3-Copy-33-2" data-name="Rectangle-3-Copy-33" class="cls-2" d="M1139.32,1200.48h-35v-35h35Z"/><path id="Rectangle-3-Copy-34-2" data-name="Rectangle-3-Copy-34" class="cls-4" d="M961,1108.8H945.37v-15.65H961Z"/><path id="Rectangle-3-Copy-39-2" data-name="Rectangle-3-Copy-39" class="cls-2" d="M1048,1199.74h-15.64v-15.65H1048Z"/><path id="Rectangle-3-Copy-64-2" data-name="Rectangle-3-Copy-64" class="cls-2" d="M1020.61,1396.09H1005v-15.65h15.64Z"/><path id="Rectangle-3-Copy-60-2" data-name="Rectangle-3-Copy-60" class="cls-2" d="M1085.34,1237.06H1069.7v-15.65h15.64Z"/><path id="Rectangle-3-Copy-52-2" data-name="Rectangle-3-Copy-52" class="cls-4" d="M1081.5,1429.49h-15.64v-15.65h15.64Z"/><path id="Rectangle-3-Copy-62-2" data-name="Rectangle-3-Copy-62" class="cls-4" d="M832,1125H816.35v-15.65H832Z"/><path id="Rectangle-3-Copy-47-2" data-name="Rectangle-3-Copy-47" class="cls-2" d="M1140,1377h-42v-42h42Z"/><path id="Rectangle-3-Copy-35-2" data-name="Rectangle-3-Copy-35" class="cls-6" d="M875.1,928.69H859.46V913H875.1Z"/><path id="Rectangle-3-Copy-88-2" data-name="Rectangle-3-Copy-88" class="cls-6" d="M918.29,885.51H902.65V869.86h15.64Z"/><path id="Rectangle-3-Copy-36-2" data-name="Rectangle-3-Copy-36" class="cls-4" d="M916.39,1040.63H900.75V1025h15.64Z"/><path id="Rectangle-3-Copy-25-2" data-name="Rectangle-3-Copy-25" class="cls-7" d="M1671,1848.2H1390.5V1567.49H1671Z"/><path id="Rectangle-3-Copy-14-2" data-name="Rectangle-3-Copy-14" class="cls-5" d="M1419.86,1369l-192.87-.08-.09-192.87,192.87.08"/><path id="Rectangle-3-Copy-13-2" data-name="Rectangle-3-Copy-13" class="cls-1" d="M2040.35,1652.92h-312.5V1340.16h312.5Z"/><path id="Rectangle-3-Copy-4-2" data-name="Rectangle-3-Copy-4" class="cls-8" d="M1521.91,966H1311.08V755h210.83Z"/><path id="Rectangle-3-Copy-5-2" data-name="Rectangle-3-Copy-5" class="cls-5" d="M1420.7,1164.55l-184.89-.08-.07-184.89,184.88.08"/><path id="Rectangle-3-Copy-6-2" data-name="Rectangle-3-Copy-6" class="cls-5" d="M1301.9,969.38l-108.48,0,0-108.48,108.49,0"/><path id="Rectangle-3-Copy-7-2" data-name="Rectangle-3-Copy-7" class="cls-2" d="M1300.74,852.14l-78.76,0,0-78.76,78.76,0"/><path id="Rectangle-3-Copy-41-2" data-name="Rectangle-3-Copy-41" class="cls-1" d="M1519.2,744.8h-78.73V666h78.73Z"/><path id="Rectangle-3-Copy-41-3" data-name="Rectangle-3-Copy-41" class="cls-11" d="M1519.2,653.8h-78.73V575h78.73Z"/><path id="Rectangle-3-Copy-41-4" data-name="Rectangle-3-Copy-41" class="cls-12" d="M1519.2,562.8h-78.73V484h78.73Z"/><path id="Rectangle-3-Copy-66-2" data-name="Rectangle-3-Copy-66" class="cls-1" d="M2017.7,960.7H1888.26V831.15H2017.7Z"/><path id="Rectangle-3-Copy-66-3" data-name="Rectangle-3-Copy-66" class="cls-11" d="M2017.7,822.7H1888.26V693.15H2017.7Z"/><path id="Rectangle-3-Copy-66-4" data-name="Rectangle-3-Copy-66" class="cls-13" d="M2051.7,680.7H1922.26V551.15H2051.7Z"/><path id="Rectangle-3-Copy-27-2" data-name="Rectangle-3-Copy-27" class="cls-2" d="M1220.57,1142.83l-92.41,0,0-92.41,92.41,0"/><path id="Rectangle-3-Copy-38-2" data-name="Rectangle-3-Copy-38" class="cls-4" d="M866.2,1051H852.77v-13.44H866.2Z"/><path id="Rectangle-3-Copy-28-2" data-name="Rectangle-3-Copy-28" class="cls-2" d="M1051.51,997.15h-45.06V952h45.06Z"/><path id="Rectangle-3-Copy-29-2" data-name="Rectangle-3-Copy-29" class="cls-2" d="M1052.34,1142.12h-32.19V1109.9h32.19Z"/><path id="Rectangle-3-Copy-61-2" data-name="Rectangle-3-Copy-61" class="cls-2" d="M960.11,1293.28H927.92v-32.22h32.19Z"/><path id="Rectangle-3-Copy-92-2" data-name="Rectangle-3-Copy-92" class="cls-2" d="M1012.54,1244.62H987.2v-25.36h25.34Z"/><path id="Rectangle-3-Copy-15-2" data-name="Rectangle-3-Copy-15" class="cls-2" d="M1127.74,969.18h-46.85V922.29h46.85Z"/><path id="Rectangle-3-Copy-16-2" data-name="Rectangle-3-Copy-16" class="cls-3" d="M1219.29,1039.49l-57.06,0,0-57.07,57.07,0"/><path id="Rectangle-3-Copy-8-2" data-name="Rectangle-3-Copy-8" class="cls-2" d="M1104.19,1047.62h-31.1v-31.12h31.1Z"/><path id="Rectangle-3-Copy-21-2" data-name="Rectangle-3-Copy-21" class="cls-6" d="M887.89,978.76h-9.74V969h9.74Z"/><path id="Rectangle-3-Copy-63-2" data-name="Rectangle-3-Copy-63" class="cls-6" d="M889.94,1192.79H880.2V1183h9.74Z"/><path id="Rectangle-3-Copy-65-2" data-name="Rectangle-3-Copy-65" class="cls-6" d="M1007.82,1346h-9.74v-9.75h9.74Z"/><path id="Rectangle-3-Copy-49-2" data-name="Rectangle-3-Copy-49" class="cls-4" d="M900.74,1101.53H891v-9.75h9.74Z"/><path id="Rectangle-3-Copy-30-2" data-name="Rectangle-3-Copy-30" class="cls-9" d="M835.13,887.36H824.78V877h10.35Z"/><path id="Rectangle-3-Copy-70-2" data-name="Rectangle-3-Copy-70" class="cls-9" d="M768.35,828.43H758V818.07h10.35Z"/><path id="Rectangle-3-Copy-90-2" data-name="Rectangle-3-Copy-90" class="cls-9" d="M972.59,879.56H962.24V869.2h10.35Z"/><path id="Rectangle-3-Copy-67-2" data-name="Rectangle-3-Copy-67" class="cls-9" d="M773.24,796h-4.45v-4.46h4.45"/><path id="Rectangle-3-Copy-91-2" data-name="Rectangle-3-Copy-91" class="cls-9" d="M912.71,911.93h-4.45v-4.46h4.46"/><path id="Rectangle-3-Copy-68-2" data-name="Rectangle-3-Copy-68" class="cls-9" d="M790,881.44h-6.42V875H790"/><path id="Rectangle-3-Copy-69-2" data-name="Rectangle-3-Copy-69" class="cls-9" d="M796.82,815.66h-4.46V811.2h4.46"/><path id="Rectangle-3-Copy-42-2" data-name="Rectangle-3-Copy-42" class="cls-9" d="M822.53,845.65h-4.81v-4.81h4.81Z"/><path id="Rectangle-3-Copy-51-2" data-name="Rectangle-3-Copy-51" class="cls-9" d="M826.49,920.27h-4.81v-4.81h4.81Z"/><path id="Rectangle-3-Copy-89-2" data-name="Rectangle-3-Copy-89" class="cls-9" d="M869.67,873.16h-4.81v-4.81h4.81Z"/><path id="Rectangle-3-Copy-26-2" data-name="Rectangle-3-Copy-26" class="cls-6" d="M811.55,977.5H793.47V959.4h18.08Z"/><path id="Rectangle-3-Copy-48-2" data-name="Rectangle-3-Copy-48" class="cls-4" d="M975.5,1197.43H957.42v-18.1H975.5Z"/><path id="Rectangle-3-Copy-22-2" data-name="Rectangle-3-Copy-22" class="cls-2" d="M1046.57,890.63h-18.08v-18.1h18.08Z"/><path id="Rectangle-3-Copy-23-2" data-name="Rectangle-3-Copy-23" class="cls-4" d="M966.1,971.1H948V953H966.1Z"/><path id="Rectangle-3-Copy-50-2" data-name="Rectangle-3-Copy-50" class="cls-6" d="M805.68,1034.45H787.6v-18.1h18.08Z"/><g id="Group-4-2" data-name="Group-4" class="cls-10"><path id="Rectangle-3-Copy-74-2" data-name="Rectangle-3-Copy-74" class="cls-6" d="M1089.14,123.35H1073.5V107.71h15.64Z"/><path id="Rectangle-3-Copy-77-2" data-name="Rectangle-3-Copy-77" class="cls-6" d="M1068.49,65.43h-9.74V55.69h9.74Z"/><path id="Rectangle-3-Copy-78-2" data-name="Rectangle-3-Copy-78" class="cls-9" d="M1161.12,157.46h-10.35V147.11h10.35Z"/><path id="Rectangle-3-Copy-79-2" data-name="Rectangle-3-Copy-79" class="cls-9" d="M1188.64,216.38h-10.35V206h10.35Z"/><path id="Rectangle-3-Copy-80-2" data-name="Rectangle-3-Copy-80" class="cls-9" d="M1159.65,244.31h4.45v4.45h-4.46"/><path id="Rectangle-3-Copy-81-2" data-name="Rectangle-3-Copy-81" class="cls-9" d="M1117.45,282.58h6.42V289h-6.42"/><path id="Rectangle-3-Copy-82-2" data-name="Rectangle-3-Copy-82" class="cls-9" d="M1114.48,234.47h4.46v4.45h-4.46"/><path id="Rectangle-3-Copy-83-2" data-name="Rectangle-3-Copy-83" class="cls-9" d="M1136.77,201.45H1132v-4.81h4.81Z"/><path id="Rectangle-3-Copy-84-2" data-name="Rectangle-3-Copy-84" class="cls-9" d="M1126.92,120.94h-4.81v-4.81h4.81Z"/><path id="Rectangle-3-Copy-85-2" data-name="Rectangle-3-Copy-85" class="cls-6" d="M1155.13,77h-18.08V58.91h18.08Z"/><path id="Rectangle-3-Copy-86-2" data-name="Rectangle-3-Copy-86" class="cls-6" d="M1159,18.1H1141V0H1159Z"/></g><path id="Rectangle-3-Copy-10-2" data-name="Rectangle-3-Copy-10" class="cls-3" d="M1183.67,913.22h-48.8V864.38h48.8Z"/><path id="Rectangle-3-Copy-17-2" data-name="Rectangle-3-Copy-17" class="cls-2" d="M1117.59,1142.69h-38.17v-38.21h38.17Z"/><path id="Rectangle-3-Copy-18-2" data-name="Rectangle-3-Copy-18" class="cls-2" d="M1113.56,899.21h-38.17V861h38.17Z"/><path id="Rectangle-3-Copy-20-2" data-name="Rectangle-3-Copy-20" class="cls-2" d="M1150.51,1037.36H1125v-25.57h25.55Z"/><path id="Rectangle-3-Copy-19-2" data-name="Rectangle-3-Copy-19" class="cls-2" d="M985.29,931H963.67V909.39h21.62Z"/><path id="Rectangle-3-Copy-11-2" data-name="Rectangle-3-Copy-11" class="cls-2" d="M1185.68,970.16l-48.81,0,0-48.81,48.82,0"/><path id="Rectangle-3-Copy-9-2" data-name="Rectangle-3-Copy-9" class="cls-4" d="M984,1060.15H938v-46.05h46Z"/></g></g><g id="Layer_2-4" data-name="Layer 2"><g id="Layer_1-2-4" data-name="Layer 1-2"><path id="Rectangle-3-Copy-12-3" data-name="Rectangle-3-Copy-12" class="cls-1" d="M1513.13,445.67H1232.65V165h280.47Z"/><path id="Rectangle-3-Copy-24-3" data-name="Rectangle-3-Copy-24" class="cls-2" d="M1215,445.35H1045.83V276.09H1215Z"/><path id="Rectangle-3-Copy-53-3" data-name="Rectangle-3-Copy-53" class="cls-3" d="M1033.42,434.81l-75.39,0,0-75.39,75.39,0"/><path id="Rectangle-3-Copy-31-3" data-name="Rectangle-3-Copy-31" class="cls-3" d="M1010.18,203.64l-88,0,0-88,88,0"/><path id="Rectangle-3-Copy-37-3" data-name="Rectangle-3-Copy-37" class="cls-3" d="M1011.85,106.43l-63.78,0,0-63.77,63.78,0"/><path id="Rectangle-3-Copy-46-3" data-name="Rectangle-3-Copy-46" class="cls-4" d="M837.06,213.71H787V163.65h50Z"/><path id="Rectangle-3-Copy-40-3" data-name="Rectangle-3-Copy-40" class="cls-2" d="M1009,264.57l-50,0,0-50,50,0"/><path id="Rectangle-3-Copy-43-3" data-name="Rectangle-3-Copy-43" class="cls-5" d="M1132.55,533.31l-74.68,0,0-74.69,74.68,0"/><path id="Rectangle-3-Copy-44-3" data-name="Rectangle-3-Copy-44" class="cls-5" d="M1134.52,617.74h-74.65V543h74.65Z"/><path id="Rectangle-3-Copy-54-3" data-name="Rectangle-3-Copy-54" class="cls-3" d="M1014.07,633.24l-57.56,0,0-57.56,57.55,0"/><path id="Rectangle-3-Copy-56-3" data-name="Rectangle-3-Copy-56" class="cls-3" d="M922.71,557.87H884.54V519.67h38.17Z"/><path id="Rectangle-3-Copy-55-3" data-name="Rectangle-3-Copy-55" class="cls-5" d="M1104.95,713.45h-50.76v-50.8h50.76Z"/><path id="Rectangle-3-Copy-57-3" data-name="Rectangle-3-Copy-57" class="cls-3" d="M1048.52,506.71H997.76v-50.8h50.76Z"/><path id="Rectangle-3-Copy-87-3" data-name="Rectangle-3-Copy-87" class="cls-3" d="M988.64,506.48H937.88v-50.8h50.76Z"/><path id="Rectangle-3-Copy-45-3" data-name="Rectangle-3-Copy-45" class="cls-3" d="M1033.24,352.6l-74.68,0,0-74.69,74.68,0"/><path id="Rectangle-3-Copy-33-3" data-name="Rectangle-3-Copy-33" class="cls-2" d="M892.32,92.48h-35v-35h35Z"/><path id="Rectangle-3-Copy-39-3" data-name="Rectangle-3-Copy-39" class="cls-2" d="M801,91.74H785.38V76.09H801Z"/><path id="Rectangle-3-Copy-64-3" data-name="Rectangle-3-Copy-64" class="cls-2" d="M773.61,288.09H758V272.44h15.64Z"/><path id="Rectangle-3-Copy-60-3" data-name="Rectangle-3-Copy-60" class="cls-2" d="M838.34,129.06H822.7V113.41h15.64Z"/><path id="Rectangle-3-Copy-52-3" data-name="Rectangle-3-Copy-52" class="cls-4" d="M834.5,321.49H818.86V305.85H834.5Z"/><path id="Rectangle-3-Copy-62-3" data-name="Rectangle-3-Copy-62" class="cls-4" d="M585,17H569.35V1.38H585Z"/><path id="Rectangle-3-Copy-47-3" data-name="Rectangle-3-Copy-47" class="cls-2" d="M893,269H851V227h42Z"/><path id="Rectangle-3-Copy-35-3" data-name="Rectangle-3-Copy-35" class="cls-6" d="M789,441.67V426h15.65v15.64Z"/><path id="Rectangle-3-Copy-25-3" data-name="Rectangle-3-Copy-25" class="cls-7" d="M1424,740.2H1143.5V459.49H1424Z"/><path id="Rectangle-3-Copy-14-3" data-name="Rectangle-3-Copy-14" class="cls-5" d="M1213.86,261,1021,260.89,1020.91,68l192.87.08"/><path id="Rectangle-3-Copy-13-3" data-name="Rectangle-3-Copy-13" class="cls-1" d="M1912.57,604.2H1534.85v-378h377.72Z"/><path id="Rectangle-3-Copy-29-3" data-name="Rectangle-3-Copy-29" class="cls-2" d="M805.34,34.12H773.15V1.9h32.19Z"/><path id="Rectangle-3-Copy-61-3" data-name="Rectangle-3-Copy-61" class="cls-2" d="M713.11,185.28H680.92V153.06h32.19Z"/><path id="Rectangle-3-Copy-92-3" data-name="Rectangle-3-Copy-92" class="cls-2" d="M765.54,136.62H740.2V111.27h25.34Z"/><path id="Rectangle-3-Copy-63-3" data-name="Rectangle-3-Copy-63" class="cls-6" d="M642.94,84.79H633.2V75h9.74Z"/><path id="Rectangle-3-Copy-65-3" data-name="Rectangle-3-Copy-65" class="cls-6" d="M760.82,238h-9.74v-9.75h9.74Z"/><path id="Rectangle-3-Copy-30-3" data-name="Rectangle-3-Copy-30" class="cls-9" d="M830.31,401.71V391.36h10.36v10.35Z"/><path id="Rectangle-3-Copy-70-3" data-name="Rectangle-3-Copy-70" class="cls-9" d="M889.25,334.92V324.57h10.36v10.35Z"/><path id="Rectangle-3-Copy-67-3" data-name="Rectangle-3-Copy-67" class="cls-9" d="M921.66,339.82v-4.45h4.46v4.45"/><path id="Rectangle-3-Copy-68-3" data-name="Rectangle-3-Copy-68" class="cls-9" d="M836.23,356.55v-6.42h6.42v6.42"/><path id="Rectangle-3-Copy-69-3" data-name="Rectangle-3-Copy-69" class="cls-9" d="M902,363.39v-4.46h4.46v4.46"/><path id="Rectangle-3-Copy-42-3" data-name="Rectangle-3-Copy-42" class="cls-9" d="M872,389.1V384.3h4.81v4.81Z"/><path id="Rectangle-3-Copy-51-3" data-name="Rectangle-3-Copy-51" class="cls-9" d="M797.4,393.06v-4.81h4.81v4.81Z"/><path id="Rectangle-3-Copy-89-3" data-name="Rectangle-3-Copy-89" class="cls-9" d="M844.51,436.24v-4.81h4.81v4.81Z"/><path id="Rectangle-3-Copy-48-3" data-name="Rectangle-3-Copy-48" class="cls-4" d="M728.5,89.43H710.42V71.33H728.5Z"/></g></g><g id="Layer_2-5" data-name="Layer 2"><g id="Layer_1-2-5" data-name="Layer 1-2"><path id="Rectangle-3-Copy-3-3" data-name="Rectangle-3-Copy" class="cls-1" d="M0,427.79H250.07V678.08H0Z"/><path id="Rectangle-3-Copy-2-4" data-name="Rectangle-3-Copy-2" class="cls-2" d="M140.1,689.07H390.17V939.36H140.1Z"/><path id="Rectangle-3-Copy-3-4" data-name="Rectangle-3-Copy-3" class="cls-2" d="M259.11,472.1H464.35V677.51H259.11Z"/><path id="Rectangle-3-Copy-12-4" data-name="Rectangle-3-Copy-12" class="cls-1" d="M260,255.71H466.15V462H260Z"/><path id="Rectangle-3-Copy-24-4" data-name="Rectangle-3-Copy-24" class="cls-2" d="M478.42,255.95h124.3v124.4H478.42Z"/><path id="Rectangle-3-Copy-53-4" data-name="Rectangle-3-Copy-53" class="cls-3" d="M612.58,223.34l92.07,0,0,92.07-92.07,0"/><path id="Rectangle-3-Copy-31-4" data-name="Rectangle-3-Copy-31" class="cls-3" d="M622.31,433.6l64.65,0,0,64.64-64.65,0"/><path id="Rectangle-3-Copy-37-4" data-name="Rectangle-3-Copy-37" class="cls-3" d="M621.08,505l46.88,0,0,46.87H621.1"/><path id="Rectangle-3-Copy-32-3" data-name="Rectangle-3-Copy-32" class="cls-2" d="M746.67,600h28.58v28.6H746.67Z"/><path id="Rectangle-3-Copy-46-4" data-name="Rectangle-3-Copy-46" class="cls-4" d="M720.15,426.2h36.76V463H720.15Z"/><path id="Rectangle-3-Copy-40-4" data-name="Rectangle-3-Copy-40" class="cls-2" d="M624.68,388.82h36.77v36.77H624.7"/><path id="Rectangle-3-Copy-43-4" data-name="Rectangle-3-Copy-43" class="cls-5" d="M503,191.3l54.89,0,0,54.9-54.89,0"/><path id="Rectangle-3-Copy-44-4" data-name="Rectangle-3-Copy-44" class="cls-5" d="M501.53,129.24h54.87v54.91H501.53Z"/><path id="Rectangle-3-Copy-54-4" data-name="Rectangle-3-Copy-54" class="cls-3" d="M590.05,103.85l42.3,0v42.3l-42.3,0"/><path id="Rectangle-3-Copy-56-4" data-name="Rectangle-3-Copy-56" class="cls-3" d="M657.2,173.25h28.05v28.08H657.2Z"/><path id="Rectangle-3-Copy-55-4" data-name="Rectangle-3-Copy-55" class="cls-5" d="M523.26,58.9h37.31V96.24H523.26Z"/><path id="Rectangle-3-Copy-57-4" data-name="Rectangle-3-Copy-57" class="cls-3" d="M566.2,205.71h37.31V243H566.2Z"/><path id="Rectangle-3-Copy-87-4" data-name="Rectangle-3-Copy-87" class="cls-3" d="M569.05,156.63h37.31V194H569.05Z"/><path id="Rectangle-3-Copy-45-4" data-name="Rectangle-3-Copy-45" class="cls-3" d="M612.71,324.12l54.89,0,0,54.9-54.89,0"/><path id="Rectangle-3-Copy-33-4" data-name="Rectangle-3-Copy-33" class="cls-2" d="M679.54,515.3h25.71V541H679.54Z"/><path id="Rectangle-3-Copy-34-3" data-name="Rectangle-3-Copy-34" class="cls-4" d="M810.59,582.68h11.49v11.5H810.59Z"/><path id="Rectangle-3-Copy-39-4" data-name="Rectangle-3-Copy-39" class="cls-2" d="M746.64,515.84h11.49v11.5H746.64Z"/><path id="Rectangle-3-Copy-64-4" data-name="Rectangle-3-Copy-64" class="cls-2" d="M766.78,371.53h11.49V383H766.78Z"/><path id="Rectangle-3-Copy-60-4" data-name="Rectangle-3-Copy-60" class="cls-2" d="M719.21,488.41H730.7v11.5H719.21Z"/><path id="Rectangle-3-Copy-52-4" data-name="Rectangle-3-Copy-52" class="cls-4" d="M722,347h11.49v11.5H722Z"/><path id="Rectangle-3-Copy-62-4" data-name="Rectangle-3-Copy-62" class="cls-4" d="M905.41,570.75h11.49v11.5H905.41Z"/><path id="Rectangle-3-Copy-47-4" data-name="Rectangle-3-Copy-47" class="cls-2" d="M679,385.59h30.85v30.87H679Z"/><path id="Rectangle-3-Copy-35-4" data-name="Rectangle-3-Copy-35" class="cls-6" d="M873.73,715.06h11.49v11.5H873.73Z"/><path id="Rectangle-3-Copy-88-3" data-name="Rectangle-3-Copy-88" class="cls-6" d="M842,746.79h11.49v11.5H842Z"/><path id="Rectangle-3-Copy-36-3" data-name="Rectangle-3-Copy-36" class="cls-4" d="M843.38,632.78h11.49v11.5H843.38Z"/><path id="Rectangle-3-Copy-25-4" data-name="Rectangle-3-Copy-25" class="cls-7" d="M288.78,39.24H494.93V245.55H288.78Z"/><path id="Rectangle-3-Copy-14-4" data-name="Rectangle-3-Copy-14" class="cls-5" d="M473.34,391.46l141.75.06.07,141.75-141.75-.06"/><path id="Rectangle-3-Copy-13-4" data-name="Rectangle-3-Copy-13" class="cls-1" d="M17.3,182.76H247V412.64H17.3Z"/><path id="Rectangle-3-Copy-4-3" data-name="Rectangle-3-Copy-4" class="cls-8" d="M398.34,687.6h155V842.69h-155Z"/><path id="Rectangle-3-Copy-5-3" data-name="Rectangle-3-Copy-5" class="cls-5" d="M472.73,541.71l135.89.06.05,135.89-135.88-.06"/><path id="Rectangle-3-Copy-6-3" data-name="Rectangle-3-Copy-6" class="cls-5" d="M560,685.15l79.73,0,0,79.73-79.73,0"/><path id="Rectangle-3-Copy-7-3" data-name="Rectangle-3-Copy-7" class="cls-2" d="M560.89,771.32l57.88,0,0,57.88-57.88,0"/><path id="Rectangle-3-Copy-41-5" data-name="Rectangle-3-Copy-41" class="cls-1" d="M400.33,850.21H458.2v57.91H400.33Z"/><path id="Rectangle-3-Copy-66-5" data-name="Rectangle-3-Copy-66" class="cls-1" d="M34,691.53h95.13v95.21H34Z"/><path id="Rectangle-3-Copy-27-3" data-name="Rectangle-3-Copy-27" class="cls-2" d="M619.82,557.67l67.92,0,0,67.92-67.92,0"/><path id="Rectangle-3-Copy-38-3" data-name="Rectangle-3-Copy-38" class="cls-4" d="M880.27,625.12h9.87V635h-9.87Z"/><path id="Rectangle-3-Copy-28-3" data-name="Rectangle-3-Copy-28" class="cls-2" d="M744.07,664.74h33.12v33.15H744.07Z"/><path id="Rectangle-3-Copy-29-4" data-name="Rectangle-3-Copy-29" class="cls-2" d="M743.46,558.19h23.66v23.68H743.46Z"/><path id="Rectangle-3-Copy-61-4" data-name="Rectangle-3-Copy-61" class="cls-2" d="M811.25,447.09h23.66v23.68H811.25Z"/><path id="Rectangle-3-Copy-92-4" data-name="Rectangle-3-Copy-92" class="cls-2" d="M772.72,482.85h18.62v18.64H772.72Z"/><path id="Rectangle-3-Copy-15-3" data-name="Rectangle-3-Copy-15" class="cls-2" d="M688,685.3h34.44v34.46H688Z"/><path id="Rectangle-3-Copy-16-3" data-name="Rectangle-3-Copy-16" class="cls-3" d="M620.76,633.62H662.7l0,41.95-41.95,0"/><path id="Rectangle-3-Copy-8-3" data-name="Rectangle-3-Copy-8" class="cls-2" d="M705.35,627.64h22.86v22.87H705.35Z"/><path id="Rectangle-3-Copy-21-3" data-name="Rectangle-3-Copy-21" class="cls-6" d="M864.33,678.25h7.16v7.16h-7.16Z"/><path id="Rectangle-3-Copy-63-4" data-name="Rectangle-3-Copy-63" class="cls-6" d="M862.82,520.95H870v7.16h-7.16Z"/><path id="Rectangle-3-Copy-65-4" data-name="Rectangle-3-Copy-65" class="cls-6" d="M776.18,408.34h7.16v7.16h-7.16Z"/><path id="Rectangle-3-Copy-49-3" data-name="Rectangle-3-Copy-49" class="cls-4" d="M854.88,588H862v7.16h-7.16Z"/><path id="Rectangle-3-Copy-30-4" data-name="Rectangle-3-Copy-30" class="cls-9" d="M903.11,745.43h7.61V753h-7.61Z"/><path id="Rectangle-3-Copy-70-4" data-name="Rectangle-3-Copy-70" class="cls-9" d="M952.19,788.75h7.61v7.61h-7.61Z"/><path id="Rectangle-3-Copy-90-3" data-name="Rectangle-3-Copy-90" class="cls-9" d="M802.08,751.16h7.61v7.61h-7.61Z"/><path id="Rectangle-3-Copy-67-4" data-name="Rectangle-3-Copy-67" class="cls-9" d="M948.59,812.56h3.27v3.28h-3.27"/><path id="Rectangle-3-Copy-91-3" data-name="Rectangle-3-Copy-91" class="cls-9" d="M846.09,727.37h3.27v3.28h-3.28"/><path id="Rectangle-3-Copy-68-4" data-name="Rectangle-3-Copy-68" class="cls-9" d="M936.3,749.78H941v4.72H936.3"/><path id="Rectangle-3-Copy-69-4" data-name="Rectangle-3-Copy-69" class="cls-9" d="M931.27,798.13h3.28v3.28h-3.28"/><path id="Rectangle-3-Copy-42-4" data-name="Rectangle-3-Copy-42" class="cls-9" d="M912.37,776.09h3.53v3.53h-3.53Z"/><path id="Rectangle-3-Copy-51-4" data-name="Rectangle-3-Copy-51" class="cls-9" d="M909.46,721.24H913v3.53h-3.53Z"/><path id="Rectangle-3-Copy-89-4" data-name="Rectangle-3-Copy-89" class="cls-9" d="M877.72,755.87h3.53v3.53h-3.53Z"/><path id="Rectangle-3-Copy-26-3" data-name="Rectangle-3-Copy-26" class="cls-6" d="M920.44,679.18h13.29v13.3H920.44Z"/><path id="Rectangle-3-Copy-48-4" data-name="Rectangle-3-Copy-48" class="cls-4" d="M799.94,517.54h13.29v13.3H799.94Z"/><path id="Rectangle-3-Copy-22-3" data-name="Rectangle-3-Copy-22" class="cls-2" d="M747.7,743H761v13.3H747.7Z"/><path id="Rectangle-3-Copy-23-3" data-name="Rectangle-3-Copy-23" class="cls-4" d="M806.85,683.88h13.29v13.3H806.85Z"/><path id="Rectangle-3-Copy-50-3" data-name="Rectangle-3-Copy-50" class="cls-6" d="M924.75,637.33H938v13.3H924.75Z"/><g id="Group-4-3" data-name="Group-4" class="cls-10"><path id="Rectangle-3-Copy-73-2" data-name="Rectangle-3-Copy-73" class="cls-4" d="M686.17,1452.7h11.49v11.5H686.17Z"/><path id="Rectangle-3-Copy-74-3" data-name="Rectangle-3-Copy-74" class="cls-6" d="M716.42,1307h11.49v11.5H716.42Z"/><path id="Rectangle-3-Copy-75-2" data-name="Rectangle-3-Copy-75" class="cls-4" d="M746.76,1389.23h11.49v11.5H746.76Z"/><path id="Rectangle-3-Copy-76-2" data-name="Rectangle-3-Copy-76" class="cls-4" d="M711.5,1398.5h9.87v9.88H711.5Z"/><path id="Rectangle-3-Copy-77-3" data-name="Rectangle-3-Copy-77" class="cls-6" d="M731.59,1349.53h7.16v7.16h-7.16Z"/><path id="Rectangle-3-Copy-78-3" data-name="Rectangle-3-Copy-78" class="cls-9" d="M663.51,1281.88h7.61v7.61h-7.61Z"/><path id="Rectangle-3-Copy-79-3" data-name="Rectangle-3-Copy-79" class="cls-9" d="M643.28,1238.58h7.61v7.61h-7.61Z"/><path id="Rectangle-3-Copy-80-3" data-name="Rectangle-3-Copy-80" class="cls-9" d="M664.59,1218.06h-3.27v-3.27h3.28"/><path id="Rectangle-3-Copy-81-3" data-name="Rectangle-3-Copy-81" class="cls-9" d="M695.61,1189.93h-4.72v-4.72h4.72"/><path id="Rectangle-3-Copy-82-3" data-name="Rectangle-3-Copy-82" class="cls-9" d="M697.79,1225.29h-3.28V1222h3.28"/><path id="Rectangle-3-Copy-83-3" data-name="Rectangle-3-Copy-83" class="cls-9" d="M681.41,1249.56h3.53v3.53h-3.53Z"/><path id="Rectangle-3-Copy-84-3" data-name="Rectangle-3-Copy-84" class="cls-9" d="M688.65,1308.73h3.53v3.53h-3.53Z"/><path id="Rectangle-3-Copy-85-3" data-name="Rectangle-3-Copy-85" class="cls-6" d="M667.91,1341H681.2v13.3H667.91Z"/><path id="Rectangle-3-Copy-86-3" data-name="Rectangle-3-Copy-86" class="cls-6" d="M665,1384.32h13.29v13.3H665Z"/></g><path id="Rectangle-3-Copy-10-3" data-name="Rectangle-3-Copy-10" class="cls-3" d="M646.94,726.43h35.87v35.9H646.94Z"/><path id="Rectangle-3-Copy-17-3" data-name="Rectangle-3-Copy-17" class="cls-2" d="M695.51,557.77h28.05v28.08H695.51Z"/><path id="Rectangle-3-Copy-18-3" data-name="Rectangle-3-Copy-18" class="cls-2" d="M698.47,736.72h28.05v28.08H698.47Z"/><path id="Rectangle-3-Copy-20-3" data-name="Rectangle-3-Copy-20" class="cls-2" d="M671.31,635.18H690.1V654H671.31Z"/><path id="Rectangle-3-Copy-19-3" data-name="Rectangle-3-Copy-19" class="cls-2" d="M792.74,713.33h15.89v15.91H792.74Z"/><path id="Rectangle-3-Copy-11-3" data-name="Rectangle-3-Copy-11" class="cls-2" d="M645.46,684.58h35.88l0,35.88H645.48"/><path id="Rectangle-3-Copy-9-3" data-name="Rectangle-3-Copy-9" class="cls-4" d="M793.68,618.44H827.5v33.85H793.68Z"/></g></g></g></g></svg>