<?xml version="1.0" encoding="UTF-8" standalone="no"?>
<svg width="1440px" height="2435px" viewBox="0 0 1440 2435" version="1.1" xmlns="http://www.w3.org/2000/svg" xmlns:xlink="http://www.w3.org/1999/xlink">
    <!-- Generator: Sketch 42 (36781) - http://www.bohemiancoding.com/sketch -->
    <title>splash_background</title>
    <desc>Created with Sketch.</desc>
    <defs></defs>
    <g id="Desktop" stroke="none" stroke-width="1" fill="none" fill-rule="evenodd">
        <g id="Desktop-HD" transform="translate(0.000000, -1461.000000)" fill="#FFFFFF">
            <g id="Screen-3" transform="translate(-660.000000, 1222.000000)">
                <g id="splash_background">
                    <g id="squares-lower" transform="translate(0.000000, 681.000000)" opacity="0.48">
                        <g style="mix-blend-mode: hard-light;" transform="translate(1132.411850, 1132.668039) rotate(-315.000000) translate(-1132.411850, -1132.668039) translate(490.411850, 173.668039)">
                            <rect id="Rectangle-3-Copy" transform="translate(362.937916, 1450.755194) rotate(-45.000000) translate(-362.937916, -1450.755194) " x="190.170561" y="1277.84093" width="345.53471" height="345.828519"></rect>
                            <rect id="Rectangle-3-Copy-2" opacity="0.599638526" transform="translate(244.545890, 1058.600798) rotate(-45.000000) translate(-244.545890, -1058.600798) " x="71.7785348" y="885.686538" width="345.53471" height="345.828519"></rect>
                            <rect id="Rectangle-3-Copy-3" opacity="0.597947761" transform="translate(572.828286, 1198.138271) rotate(-45.000000) translate(-572.828286, -1198.138271) " x="431.037037" y="1056.22646" width="283.582498" height="283.823629"></rect>
                            <rect id="Rectangle-3-Copy-12" transform="translate(785.125455, 1407.794702) rotate(-45.000000) translate(-785.125455, -1407.794702) " x="642.709946" y="1265.2581" width="284.831018" height="285.07321"></rect>
                            <rect id="Rectangle-3-Copy-24" opacity="0.600000024" transform="translate(998.322867, 1274.159075) rotate(-45.000000) translate(-998.322867, -1274.159075) " x="912.4503" y="1188.21349" width="171.745133" height="171.891169"></rect>
                            <polyline id="Rectangle-3-Copy-53" opacity="0.699999988" points="1071.3819 1206.44896 1161.29873 1116.45568 1251.21555 1206.44896 1161.29873 1296.44224"></polyline>
                            <polyline id="Rectangle-3-Copy-31" opacity="0.699999988" points="902.250438 1018.3172 965.388113 955.125839 1028.52579 1018.3172 965.388113 1081.50856"></polyline>
                            <polyline id="Rectangle-3-Copy-37" opacity="0.699999988" points="848.600194 967.088468 894.378953 921.270783 940.157712 967.088468 894.378953 1012.90615"></polyline>
                            <rect id="Rectangle-3-Copy-32" opacity="0.600000024" transform="translate(924.284490, 769.481807) rotate(-45.000000) translate(-924.284490, -769.481807) " x="904.541182" y="749.721712" width="39.4866155" height="39.5201911"></rect>
                            <rect id="Rectangle-3-Copy-46" opacity="0.5" transform="translate(1068.195704, 957.214076) rotate(-45.000000) translate(-1068.195704, -957.214076) " x="1042.80155" y="931.79833" width="50.7883072" height="50.8314926"></rect>
                            <polyline id="Rectangle-3-Copy-40" opacity="0.600000024" points="975.54074 1086.99179 1011.4535 1051.0485 1047.36625 1086.99179 1011.4535 1122.93508"></polyline>
                            <polyline id="Rectangle-3-Copy-43" opacity="0.800000012" points="1031.9179 1381.18195 1085.52281 1327.53145 1139.12772 1381.18195 1085.52281 1434.83244"></polyline>
                            <rect id="Rectangle-3-Copy-44" opacity="0.800000012" transform="translate(1144.718821, 1443.249547) rotate(-45.000000) translate(-1144.718821, -1443.249547) " x="1106.81442" y="1405.31292" width="75.8087942" height="75.8732546"></rect>
                            <polyline id="Rectangle-3-Copy-54" opacity="0.699999988" points="1201.04936 1380.16115 1242.35892 1338.81647 1283.66848 1380.16115 1242.35892 1421.50584"></polyline>
                            <rect id="Rectangle-3-Copy-56" opacity="0.699999988" transform="translate(1253.829102, 1274.364104) rotate(-45.000000) translate(-1253.829102, -1274.364104) " x="1234.44729" y="1254.96581" width="38.7636231" height="38.7965839"></rect>
                            <rect id="Rectangle-3-Copy-55" opacity="0.800000012" transform="translate(1234.681355, 1507.897285) rotate(-45.000000) translate(-1234.681355, -1507.897285) " x="1208.90671" y="1482.10072" width="51.549288" height="51.5931205"></rect>
                            <rect id="Rectangle-3-Copy-57" opacity="0.699999988" transform="translate(1133.202475, 1322.520804) rotate(-45.000000) translate(-1133.202475, -1322.520804) " x="1107.42783" y="1296.72424" width="51.549288" height="51.5931205"></rect>
                            <rect id="Rectangle-3-Copy-87" opacity="0.699999988" transform="translate(1183.941915, 1367.686405) rotate(-45.000000) translate(-1183.941915, -1367.686405) " x="1158.16727" y="1341.88984" width="51.549288" height="51.5931205"></rect>
                            <polyline id="Rectangle-3-Copy-45" opacity="0.699999988" points="1009.36703 1144.19655 1062.97195 1090.54606 1116.57686 1144.19655 1062.97195 1197.84705"></polyline>
                            <rect id="Rectangle-3-Copy-33" opacity="0.600000024" transform="translate(941.463882, 920.644317) rotate(-45.000000) translate(-941.463882, -920.644317) " x="923.701957" y="902.867289" width="35.5238495" height="35.5540555"></rect>
                            <rect id="Rectangle-3-Copy-34" opacity="0.5" transform="translate(1003.683608, 740.664737) rotate(-45.000000) translate(-1003.683608, -740.664737) " x="995.742996" y="732.717373" width="15.881224" height="15.8947278"></rect>
                            <rect id="Rectangle-3-Copy-39" opacity="0.600000024" transform="translate(1006.502466, 868.447522) rotate(-45.000000) translate(-1006.502466, -868.447522) " x="998.561854" y="860.500159" width="15.881224" height="15.8947278"></rect>
                            <rect id="Rectangle-3-Copy-64" opacity="0.600000024" transform="translate(1167.177358, 989.761472) rotate(-45.000000) translate(-1167.177358, -989.761472) " x="1159.23675" y="981.814108" width="15.881224" height="15.8947278"></rect>
                            <rect id="Rectangle-3-Copy-60" opacity="0.600000024" transform="translate(1006.502466, 922.051361) rotate(-45.000000) translate(-1006.502466, -922.051361) " x="998.561854" y="914.103997" width="15.881224" height="15.8947278"></rect>
                            <rect id="Rectangle-3-Copy-52" opacity="0.5" transform="translate(1147.445354, 1057.471584) rotate(-45.000000) translate(-1147.445354, -1057.471584) " x="1139.50474" y="1049.52422" width="15.881224" height="15.8947278"></rect>
                            <rect id="Rectangle-3-Copy-62" opacity="0.5" transform="translate(1107.981345, 659.674679) rotate(-45.000000) translate(-1107.981345, -659.674679) " x="1100.04073" y="651.727315" width="15.881224" height="15.8947278"></rect>
                            <rect id="Rectangle-3-Copy-47" opacity="0.600000024" transform="translate(1067.691712, 1042.836417) rotate(-45.000000) translate(-1067.691712, -1042.836417) " x="1046.38227" y="1021.50886" width="42.6188831" height="42.655122"></rect>
                            <rect id="Rectangle-3-Copy-35" opacity="0.400000006" transform="translate(936.031021, 549.645747) rotate(-45.000000) translate(-936.031021, -549.645747) " x="928.090409" y="541.698383" width="15.881224" height="15.8947278"></rect>
                            <rect id="Rectangle-3-Copy-88" opacity="0.400000006" transform="translate(874.016151, 549.645747) rotate(-45.000000) translate(-874.016151, -549.645747) " x="866.075539" y="541.698383" width="15.881224" height="15.8947278"></rect>
                            <rect id="Rectangle-3-Copy-36" opacity="0.5" transform="translate(986.770461, 659.674679) rotate(-45.000000) translate(-986.770461, -659.674679) " x="978.829849" y="651.727315" width="15.881224" height="15.8947278"></rect>
                            <rect id="Rectangle-3-Copy-25" opacity="0.900000036" transform="translate(1024.728365, 1591.176255) rotate(-45.000000) translate(-1024.728365, -1591.176255) " x="882.312856" y="1448.63965" width="284.831018" height="285.07321"></rect>
                            <polyline id="Rectangle-3-Copy-14" opacity="0.800000012" points="722.578703 1129.66402 861.012187 991.112828 999.445671 1129.66402 861.012187 1268.21522"></polyline>
                            <rect id="Rectangle-3-Copy-13" transform="translate(619.254265, 1693.183216) rotate(-45.000000) translate(-619.254265, -1693.183216) " x="460.580759" y="1534.37479" width="317.347012" height="317.616853"></rect>
                            <rect id="Rectangle-3-Copy-4" opacity="0.753614739" transform="translate(498.328885, 900.696406) rotate(-45.000000) translate(-498.328885, -900.696406) " x="391.277566" y="793.554062" width="214.102637" height="214.284689"></rect>
                            <polyline id="Rectangle-3-Copy-5" opacity="0.800000012" points="580.900653 989.204256 713.610139 856.381926 846.319625 989.204256 713.610139 1122.02658"></polyline>
                            <polyline id="Rectangle-3-Copy-6" opacity="0.800000012" points="580.900653 818.642192 658.76615 740.710486 736.631648 818.642192 658.76615 896.573899"></polyline>
                            <polyline id="Rectangle-3-Copy-7" opacity="0.600000024" points="518.885782 754.969964 575.416013 698.391666 631.946243 754.969964 575.416013 811.548263"></polyline>
                            <rect id="Rectangle-3-Copy-41" transform="translate(341.450818, 834.791421) rotate(-45.000000) translate(-341.450818, -834.791421) " x="301.477909" y="794.784522" width="79.9458188" height="80.013797"></rect>
                            <rect id="Rectangle-3-Copy-66" transform="translate(138.493059, 1311.353648) rotate(-45.000000) translate(-138.493059, -1311.353648) " x="72.7704757" y="1245.57518" width="131.445167" height="131.556935"></rect>
                            <polyline id="Rectangle-3-Copy-27" opacity="0.600000024" points="775.401839 896.330129 841.733741 829.941825 908.065643 896.330129 841.733741 962.718434"></polyline>
                            <rect id="Rectangle-3-Copy-38" opacity="0.5" transform="translate(1030.289715, 632.699570) rotate(-45.000000) translate(-1030.289715, -632.699570) " x="1023.46808" y="625.872134" width="13.643272" height="13.6548729"></rect>
                            <rect id="Rectangle-3-Copy-28" opacity="0.600000024" transform="translate(858.499102, 704.335292) rotate(-45.000000) translate(-858.499102, -704.335292) " x="835.618666" y="681.4354" width="45.7608725" height="45.7997831"></rect>
                            <rect id="Rectangle-3-Copy-29" opacity="0.600000024" transform="translate(962.009694, 818.274409) rotate(-45.000000) translate(-962.009694, -818.274409) " x="945.665554" y="801.916371" width="32.6882804" height="32.7160753"></rect>
                            <rect id="Rectangle-3-Copy-61" opacity="0.600000024" transform="translate(1136.778875, 860.593229) rotate(-45.000000) translate(-1136.778875, -860.593229) " x="1120.43474" y="844.235191" width="32.6882804" height="32.7160753"></rect>
                            <rect id="Rectangle-3-Copy-92" opacity="0.600000024" transform="translate(1064.206214, 868.235961) rotate(-45.000000) translate(-1064.206214, -868.235961) " x="1051.34109" y="855.3599" width="25.7302433" height="25.7521218"></rect>
                            <rect id="Rectangle-3-Copy-15" opacity="0.600000024" transform="translate(783.675998, 737.706662) rotate(-45.000000) translate(-783.675998, -737.706662) " x="759.886183" y="713.896618" width="47.5796304" height="47.6200874"></rect>
                            <polyline id="Rectangle-3-Copy-16" opacity="0.699999988" points="727.481257 846.596355 768.443439 805.599343 809.405621 846.596355 768.443439 887.593367"></polyline>
                            <rect id="Rectangle-3-Copy-8" opacity="0.600000024" transform="translate(856.924811, 788.447722) rotate(-45.000000) translate(-856.924811, -788.447722) " x="841.137267" y="772.646753" width="31.5750889" height="31.6019372"></rect>
                            <rect id="Rectangle-3-Copy-21" opacity="0.400000006" transform="translate(962.804986, 599.012515) rotate(-45.000000) translate(-962.804986, -599.012515) " x="957.85789" y="594.061212" width="9.8941914" height="9.90260446"></rect>
                            <rect id="Rectangle-3-Copy-63" opacity="0.400000006" transform="translate(1115.023305, 754.181520) rotate(-45.000000) translate(-1115.023305, -754.181520) " x="1110.07621" y="749.230218" width="9.8941914" height="9.90260446"></rect>
                            <rect id="Rectangle-3-Copy-65" opacity="0.400000006" transform="translate(1140.393025, 948.848091) rotate(-45.000000) translate(-1140.393025, -948.848091) " x="1135.44593" y="943.896789" width="9.8941914" height="9.90260446"></rect>
                            <rect id="Rectangle-3-Copy-49" opacity="0.5" transform="translate(1041.733003, 696.396738) rotate(-45.000000) translate(-1041.733003, -696.396738) " x="1036.78591" y="691.445435" width="9.8941914" height="9.90260446"></rect>
                            <rect id="Rectangle-3-Copy-30" opacity="0.300000012" transform="translate(935.050594, 495.060648) rotate(-45.000000) translate(-935.050594, -495.060648) " x="929.796482" y="489.802069" width="10.5082234" height="10.5171586"></rect>
                            <rect id="Rectangle-3-Copy-70" opacity="0.300000012" transform="translate(940.688310, 404.780499) rotate(-45.000000) translate(-940.688310, -404.780499) " x="935.434198" y="399.52192" width="10.5082234" height="10.5171586"></rect>
                            <rect id="Rectangle-3-Copy-90" opacity="0.300000012" transform="translate(830.752857, 588.162051) rotate(-45.000000) translate(-830.752857, -588.162051) " x="825.498745" y="582.903472" width="10.5082234" height="10.5171586"></rect>
                            <polyline id="Rectangle-3-Copy-67" opacity="0.300000012" points="910.707011 389.26085 913.906415 386.058726 917.105819 389.26085 913.906415 392.462974"></polyline>
                            <polyline id="Rectangle-3-Copy-91" opacity="0.300000012" points="893.793865 572.642403 896.993268 569.440279 900.192672 572.642403 896.993268 575.844527"></polyline>
                            <polyline id="Rectangle-3-Copy-68" opacity="0.300000012" points="958.627593 461.202844 963.236426 456.590093 967.845258 461.202844 963.236426 465.815595"></polyline>
                            <polyline id="Rectangle-3-Copy-69" opacity="0.300000012" points="907.888154 420.294652 911.087557 417.092528 914.286961 420.294652 911.087557 423.496776"></polyline>
                            <rect id="Rectangle-3-Copy-42" opacity="0.300000012" transform="translate(914.155305, 460.041319) rotate(-45.000000) translate(-914.155305, -460.041319) " x="911.716993" y="457.600933" width="4.87662399" height="4.88077059"></rect>
                            <rect id="Rectangle-3-Copy-51" opacity="0.300000012" transform="translate(964.894745, 516.466412) rotate(-45.000000) translate(-964.894745, -516.466412) " x="962.456433" y="514.026026" width="4.87662399" height="4.88077059"></rect>
                            <rect id="Rectangle-3-Copy-89" opacity="0.300000012" transform="translate(900.061017, 513.645157) rotate(-45.000000) translate(-900.061017, -513.645157) " x="897.622705" y="511.204772" width="4.87662399" height="4.88077059"></rect>
                            <rect id="Rectangle-3-Copy-26" opacity="0.400000006" transform="translate(1016.715039, 537.296967) rotate(-45.000000) translate(-1016.715039, -537.296967) " x="1007.53275" y="528.106868" width="18.3645824" height="18.3801979"></rect>
                            <rect id="Rectangle-3-Copy-48" opacity="0.5" transform="translate(1056.909152, 812.953596) rotate(-45.000000) translate(-1056.909152, -812.953596) " x="1047.72686" y="803.763497" width="18.3645824" height="18.3801979"></rect>
                            <rect id="Rectangle-3-Copy-22" opacity="0.600000024" transform="translate(785.568702, 643.678317) rotate(-45.000000) translate(-785.568702, -643.678317) " x="776.386411" y="634.488218" width="18.3645824" height="18.3801979"></rect>
                            <rect id="Rectangle-3-Copy-23" opacity="0.5" transform="translate(901.141870, 643.678317) rotate(-45.000000) translate(-901.141870, -643.678317) " x="891.959579" y="634.488218" width="18.3645824" height="18.3801979"></rect>
                            <rect id="Rectangle-3-Copy-50" opacity="0.400000006" transform="translate(1061.816763, 573.973277) rotate(-45.000000) translate(-1061.816763, -573.973277) " x="1052.63447" y="564.783178" width="18.3645824" height="18.3801979"></rect>
                            <g id="Group-4" opacity="0.431553172" transform="translate(161.654066, 140.162492) rotate(-180.000000) translate(-161.654066, -140.162492) translate(20.654066, 0.162492)">
                                <rect id="Rectangle-3-Copy-73" opacity="0.5" transform="translate(270.564636, 267.973443) rotate(-45.000000) translate(-270.564636, -267.973443) " x="262.624024" y="260.026079" width="15.881224" height="15.8947278"></rect>
                                <rect id="Rectangle-3-Copy-74" opacity="0.400000006" transform="translate(98.614312, 155.123257) rotate(-45.000000) translate(-98.614312, -155.123257) " x="90.6736999" y="147.175893" width="15.881224" height="15.8947278"></rect>
                                <rect id="Rectangle-3-Copy-75" opacity="0.5" transform="translate(149.353752, 265.152188) rotate(-45.000000) translate(-149.353752, -265.152188) " x="141.41314" y="257.204824" width="15.881224" height="15.8947278"></rect>
                                <rect id="Rectangle-3-Copy-76" opacity="0.5" transform="translate(192.873005, 238.177080) rotate(-45.000000) translate(-192.873005, -238.177080) " x="186.051369" y="231.349643" width="13.643272" height="13.6548729"></rect>
                                <rect id="Rectangle-3-Copy-77" opacity="0.400000006" transform="translate(125.388276, 207.311279) rotate(-45.000000) translate(-125.388276, -207.311279) " x="120.44118" y="202.359976" width="9.8941914" height="9.90260446"></rect>
                                <rect id="Rectangle-3-Copy-78" opacity="0.300000012" transform="translate(125.822462, 75.146866) rotate(-45.000000) translate(-125.822462, -75.146866) " x="120.56835" y="69.8882864" width="10.5082234" height="10.5171586"></rect>
                                <rect id="Rectangle-3-Copy-79" opacity="0.300000012" transform="translate(103.271600, 13.079263) rotate(-45.000000) translate(-103.271600, -13.079263) " x="98.0174884" y="7.82068416" width="10.5082234" height="10.5171586"></rect>
                                <polyline id="Rectangle-3-Copy-80" opacity="0.300000012" points="59.1960131 3.202124 62.3954166 -9.15711951e-13 65.5948202 3.202124 62.3954166 6.404248"></polyline>
                                <polyline id="Rectangle-3-Copy-81" opacity="0.300000012" points="4.54747351e-13 4.61275132 4.60883242 -5.76427794e-13 9.21766484 4.61275132 4.60883242 9.22550264"></polyline>
                                <polyline id="Rectangle-3-Copy-82" opacity="0.300000012" points="33.8262932 42.6996891 37.0256967 39.4975651 40.2251003 42.6996891 37.0256967 45.9018131"></polyline>
                                <rect id="Rectangle-3-Copy-83" opacity="0.300000012" transform="translate(76.738596, 57.055064) rotate(-45.000000) translate(-76.738596, -57.055064) " x="74.3002838" y="54.614679" width="4.87662399" height="4.88077059"></rect>
                                <rect id="Rectangle-3-Copy-84" opacity="0.300000012" transform="translate(127.478036, 121.943921) rotate(-45.000000) translate(-127.478036, -121.943921) " x="125.039724" y="119.503536" width="4.87662399" height="4.88077059"></rect>
                                <rect id="Rectangle-3-Copy-85" opacity="0.400000006" transform="translate(179.298329, 142.774476) rotate(-45.000000) translate(-179.298329, -142.774476) " x="170.116038" y="133.584377" width="18.3645824" height="18.3801979"></rect>
                                <rect id="Rectangle-3-Copy-86" opacity="0.400000006" transform="translate(224.400053, 182.272041) rotate(-45.000000) translate(-224.400053, -182.272041) " x="215.217762" y="173.081942" width="18.3645824" height="18.3801979"></rect>
                            </g>
                            <rect id="Rectangle-3-Copy-10" opacity="0.699999988" transform="translate(703.326287, 736.283760) rotate(-45.000000) translate(-703.326287, -736.283760) " x="678.548528" y="711.484932" width="49.5555193" height="49.5976565"></rect>
                            <rect id="Rectangle-3-Copy-17" opacity="0.600000024" transform="translate(915.566359, 861.245406) rotate(-45.000000) translate(-915.566359, -861.245406) " x="896.184414" y="841.84698" width="38.7638907" height="38.7968517"></rect>
                            <rect id="Rectangle-3-Copy-18" opacity="0.600000024" transform="translate(743.616036, 683.506363) rotate(-45.000000) translate(-743.616036, -683.506363) " x="724.23409" y="664.107937" width="38.7638907" height="38.7968517"></rect>
                            <rect id="Rectangle-3-Copy-20" opacity="0.600000024" transform="translate(816.298905, 818.318637) rotate(-45.000000) translate(-816.298905, -818.318637) " x="803.32618" y="805.334881" width="25.9454502" height="25.9675117"></rect>
                            <rect id="Rectangle-3-Copy-19" opacity="0.600000024" transform="translate(858.581771, 626.142840) rotate(-45.000000) translate(-858.581771, -626.142840) " x="847.602279" y="615.154012" width="21.9589834" height="21.9776551"></rect>
                            <polyline id="Rectangle-3-Copy-11" opacity="0.600000024" points="707.749252 778.60258 742.790296 743.53174 777.83134 778.60258 742.790296 813.673419"></polyline>
                            <rect id="Rectangle-3-Copy-9" opacity="0.5" transform="translate(952.205743, 700.428119) rotate(-45.000000) translate(-952.205743, -700.428119) " x="928.841409" y="677.043918" width="46.7286688" height="46.7684023"></rect>
                        </g>
                    </g>
                    <g id="squares-upper" opacity="0.477961754" style="mix-blend-mode: hard-light;" transform="translate(964.074079, 858.074079) scale(1, -1) rotate(-315.000000) translate(-964.074079, -858.074079) translate(398.574079, 210.074079)">
                        <rect id="Rectangle-3-Copy" transform="translate(319.620114, 884.220891) rotate(-45.000000) translate(-319.620114, -884.220891) " x="167.382512" y="731.983289" width="304.475204" height="304.475204"></rect>
                        <rect id="Rectangle-3-Copy-2" transform="translate(215.296481, 538.959344) rotate(-45.000000) translate(-215.296481, -538.959344) " x="63.0588794" y="386.721742" width="304.475204" height="304.475204"></rect>
                        <rect id="Rectangle-3-Copy-3" opacity="0.699999988" transform="translate(504.569444, 661.811273) rotate(-45.000000) translate(-504.569444, -661.811273) " x="379.627092" y="536.868921" width="249.884704" height="249.884704"></rect>
                        <rect id="Rectangle-3-Copy-12" transform="translate(691.639576, 846.397509) rotate(-45.000000) translate(-691.639576, -846.397509) " x="566.147144" y="720.905077" width="250.984863" height="250.984863"></rect>
                        <rect id="Rectangle-3-Copy-24" opacity="0.600000024" transform="translate(879.502975, 728.741698) rotate(-45.000000) translate(-879.502975, -728.741698) " x="803.834551" y="653.073273" width="151.336849" height="151.336849"></rect>
                        <polyline id="Rectangle-3-Copy-53" opacity="0.800000012" points="943.880488 669.128193 1023.1126 589.896086 1102.3447 669.128193 1023.1126 748.360301"></polyline>
                        <polyline id="Rectangle-3-Copy-31" opacity="0.699999988" points="794.846727 503.492759 850.481822 447.857664 906.116917 503.492759 850.481822 559.127854"></polyline>
                        <polyline id="Rectangle-3-Copy-37" opacity="0.699999988" points="747.571682 458.389831 787.910602 418.050911 828.249521 458.389831 787.910602 498.72875"></polyline>
                        <rect id="Rectangle-3-Copy-32" opacity="0.600000024" transform="translate(809.104738, 280.791265) rotate(-45.000000) translate(-809.104738, -280.791265) " x="786.728144" y="258.414671" width="44.753189" height="44.753189"></rect>
                        <rect id="Rectangle-3-Copy-46" opacity="0.600000024" transform="translate(941.072901, 449.696195) rotate(-45.000000) translate(-941.072901, -449.696195) " x="918.696307" y="427.3196" width="44.753189" height="44.753189"></rect>
                        <polyline id="Rectangle-3-Copy-40" opacity="0.699999988" points="859.428024 563.955412 891.073307 532.310128 922.71859 563.955412 891.073307 595.600695"></polyline>
                        <polyline id="Rectangle-3-Copy-43" opacity="0.800000012" points="909.105944 822.967039 956.341044 775.731939 1003.57614 822.967039 956.341044 870.202139"></polyline>
                        <rect id="Rectangle-3-Copy-44" opacity="0.800000012" transform="translate(1008.502861, 877.612751) rotate(-45.000000) translate(-1008.502861, -877.612751) " x="975.102601" y="844.212492" width="66.8005192" height="66.8005192"></rect>
                        <polyline id="Rectangle-3-Copy-54" opacity="0.699999988" points="1058.13971 822.068311 1094.54049 785.667523 1130.94128 822.068311 1094.54049 858.469099"></polyline>
                        <rect id="Rectangle-3-Copy-56" opacity="0.699999988" transform="translate(1104.647688, 728.922210) rotate(-45.000000) translate(-1104.647688, -728.922210) " x="1087.569" y="711.843518" width="34.1573847" height="34.1573847"></rect>
                        <rect id="Rectangle-3-Copy-55" opacity="0.800000012" transform="translate(1087.775246, 934.530073) rotate(-45.000000) translate(-1087.775246, -934.530073) " x="1065.06337" y="911.818201" width="45.4237432" height="45.4237432"></rect>
                        <rect id="Rectangle-3-Copy-57" opacity="0.699999988" transform="translate(1023.193950, 790.464103) rotate(-45.000000) translate(-1023.193950, -790.464103) " x="1000.48208" y="767.752232" width="45.4237432" height="45.4237432"></rect>
                        <polyline id="Rectangle-3-Copy-45" points="889.234776 614.319773 936.469876 567.084673 983.704976 614.319773 936.469876 661.554873"></polyline>
                        <rect id="Rectangle-3-Copy-33" opacity="0.600000024" transform="translate(829.400481, 417.499356) rotate(-45.000000) translate(-829.400481, -417.499356) " x="813.749186" y="401.848061" width="31.3025898" height="31.3025898"></rect>
                        <rect id="Rectangle-3-Copy-34" opacity="0.5" transform="translate(884.226706, 259.041288) rotate(-45.000000) translate(-884.226706, -259.041288) " x="877.229668" y="252.04425" width="13.9940758" height="13.9940758"></rect>
                        <rect id="Rectangle-3-Copy-39" opacity="0.600000024" transform="translate(886.710602, 371.544125) rotate(-45.000000) translate(-886.710602, -371.544125) " x="879.713564" y="364.547087" width="13.9940758" height="13.9940758"></rect>
                        <rect id="Rectangle-3-Copy-64" opacity="0.600000024" transform="translate(1028.292675, 478.351654) rotate(-45.000000) translate(-1028.292675, -478.351654) " x="1021.29564" y="471.354616" width="13.9940758" height="13.9940758"></rect>
                        <rect id="Rectangle-3-Copy-60" opacity="0.600000024" transform="translate(886.710602, 418.738149) rotate(-45.000000) translate(-886.710602, -418.738149) " x="879.713564" y="411.741112" width="13.9940758" height="13.9940758"></rect>
                        <rect id="Rectangle-3-Copy-52" opacity="0.5" transform="translate(1010.905403, 537.965159) rotate(-45.000000) translate(-1010.905403, -537.965159) " x="1003.90836" y="530.968121" width="13.9940758" height="13.9940758"></rect>
                        <rect id="Rectangle-3-Copy-62" opacity="0.5" transform="translate(976.130858, 187.735819) rotate(-45.000000) translate(-976.130858, -187.735819) " x="969.133821" y="180.738782" width="13.9940758" height="13.9940758"></rect>
                        <rect id="Rectangle-3-Copy-47" opacity="0.600000024" transform="translate(953.775794, 522.334266) rotate(-45.000000) translate(-953.775794, -522.334266) " x="946.778756" y="515.337228" width="13.9940758" height="13.9940758"></rect>
                        <rect id="Rectangle-3-Copy-35" opacity="0.400000006" transform="translate(824.613201, 90.136358) rotate(-45.000000) translate(-824.613201, -90.136358) " x="817.616163" y="83.1393204" width="13.9940758" height="13.9940758"></rect>
                        <rect id="Rectangle-3-Copy-36" opacity="0.5" transform="translate(869.323329, 187.008303) rotate(-45.000000) translate(-869.323329, -187.008303) " x="862.326292" y="180.011265" width="13.9940758" height="13.9940758"></rect>
                        <rect id="Rectangle-3-Copy-25" opacity="0.900000036" transform="translate(902.770737, 1007.850750) rotate(-45.000000) translate(-902.770737, -1007.850750) " x="777.278306" y="882.358318" width="250.984863" height="250.984863"></rect>
                        <polyline id="Rectangle-3-Copy-14" opacity="0.699999988" points="636.525185 601.525005 758.508771 479.541418 880.492358 601.525005 758.508771 723.508591"></polyline>
                        <rect id="Rectangle-3-Copy-13" transform="translate(545.478675, 1097.659972) rotate(-45.000000) translate(-545.478675, -1097.659972) " x="405.660166" y="957.841463" width="279.637019" height="279.637019"></rect>
                        <rect id="Rectangle-3-Copy-4" transform="translate(438.922724, 399.936768) rotate(-45.000000) translate(-438.922724, -399.936768) " x="344.592195" y="305.606239" width="188.661058" height="188.661058"></rect>
                        <polyline id="Rectangle-3-Copy-5" points="511.682581 477.861068 628.622346 360.921303 745.562111 477.861068 628.622346 594.800833"></polyline>
                        <polyline id="Rectangle-3-Copy-6" opacity="0.800000012" points="511.682581 327.694393 580.295407 259.081566 648.908234 327.694393 580.295407 396.307219"></polyline>
                        <polyline id="Rectangle-3-Copy-7" opacity="0.699999988" points="457.036868 271.635932 506.849674 221.823126 556.66248 271.635932 506.849674 321.448738"></polyline>
                        <rect id="Rectangle-3-Copy-41" transform="translate(300.686304, 341.185020) rotate(-45.000000) translate(-300.686304, -341.185020) " x="265.463331" y="305.962047" width="70.4459458" height="70.4459458"></rect>
                        <polyline id="Rectangle-3-Copy-27" points="683.071406 396.092599 741.521162 337.642844 799.970917 396.092599 741.521162 454.542355"></polyline>
                        <rect id="Rectangle-3-Copy-38" opacity="0.5" transform="translate(907.671238, 163.258811) rotate(-45.000000) translate(-907.671238, -163.258811) " x="901.66021" y="157.247783" width="12.0220571" height="12.0220571"></rect>
                        <rect id="Rectangle-3-Copy-28" opacity="0.400000006" transform="translate(756.294313, 227.056028) rotate(-45.000000) translate(-756.294313, -227.056028) " x="736.132734" y="206.894448" width="40.3231587" height="40.3231587"></rect>
                        <rect id="Rectangle-3-Copy-29" opacity="0.600000024" transform="translate(847.504857, 327.370588) rotate(-45.000000) translate(-847.504857, -327.370588) " x="833.102872" y="312.968604" width="28.8039682" height="28.8039682"></rect>
                        <rect id="Rectangle-3-Copy-61" opacity="0.600000024" transform="translate(1001.506410, 364.629028) rotate(-45.000000) translate(-1001.506410, -364.629028) " x="987.104426" y="350.227044" width="28.8039682" height="28.8039682"></rect>
                        <rect id="Rectangle-3-Copy-15" opacity="0.600000024" transform="translate(690.362356, 256.436932) rotate(-45.000000) translate(-690.362356, -256.436932) " x="669.399458" y="235.474034" width="41.9257956" height="41.9257956"></rect>
                        <polyline id="Rectangle-3-Copy-16" points="640.845174 352.305866 676.939865 316.211175 713.034556 352.305866 676.939865 388.400557"></polyline>
                        <rect id="Rectangle-3-Copy-8" opacity="0.600000024" transform="translate(754.907094, 301.110502) rotate(-45.000000) translate(-754.907094, -301.110502) " x="740.995566" y="287.198974" width="27.8230561" height="27.8230561"></rect>
                        <rect id="Rectangle-3-Copy-21" opacity="0.400000006" transform="translate(848.205645, 134.327486) rotate(-45.000000) translate(-848.205645, -134.327486) " x="843.846407" y="129.968249" width="8.71847561" height="8.71847561"></rect>
                        <rect id="Rectangle-3-Copy-63" opacity="0.400000006" transform="translate(982.336030, 270.941768) rotate(-45.000000) translate(-982.336030, -270.941768) " x="977.976792" y="266.58253" width="8.71847561" height="8.71847561"></rect>
                        <rect id="Rectangle-3-Copy-65" opacity="0.400000006" transform="translate(1004.691094, 442.330593) rotate(-45.000000) translate(-1004.691094, -442.330593) " x="1000.33186" y="437.971355" width="8.71847561" height="8.71847561"></rect>
                        <rect id="Rectangle-3-Copy-49" opacity="0.5" transform="translate(917.754733, 220.066746) rotate(-45.000000) translate(-917.754733, -220.066746) " x="913.395496" y="215.707508" width="8.71847561" height="8.71847561"></rect>
                        <rect id="Rectangle-3-Copy-30" opacity="0.300000012" transform="translate(848.588237, 17.239449) rotate(-45.000000) translate(-848.588237, -17.239449) " x="843.958466" y="12.6096779" width="9.25954289" height="9.25954289"></rect>
                        <rect id="Rectangle-3-Copy-42" opacity="0.300000012" transform="translate(805.336952, 3.794917) rotate(-45.000000) translate(-805.336952, -3.794917) " x="803.188382" y="1.64634659" width="4.29714017" height="4.29714017"></rect>
                        <rect id="Rectangle-3-Copy-51" opacity="0.300000012" transform="translate(850.047080, 60.924525) rotate(-45.000000) translate(-850.047080, -60.924525) " x="847.89851" y="58.7759551" width="4.29714017" height="4.29714017"></rect>
                        <rect id="Rectangle-3-Copy-26" opacity="0.400000006" transform="translate(895.709626, 79.264214) rotate(-45.000000) translate(-895.709626, -79.264214) " x="887.618456" y="71.1730446" width="16.1823395" height="16.1823395"></rect>
                        <rect id="Rectangle-3-Copy-48" opacity="0.5" transform="translate(931.127518, 322.686024) rotate(-45.000000) translate(-931.127518, -322.686024) " x="923.036348" y="314.594855" width="16.1823395" height="16.1823395"></rect>
                        <rect id="Rectangle-3-Copy-22" opacity="0.600000024" transform="translate(692.030152, 173.652263) rotate(-45.000000) translate(-692.030152, -173.652263) " x="683.938982" y="165.561093" width="16.1823395" height="16.1823395"></rect>
                        <rect id="Rectangle-3-Copy-23" opacity="0.5" transform="translate(793.869889, 173.652263) rotate(-45.000000) translate(-793.869889, -173.652263) " x="785.778719" y="165.561093" width="16.1823395" height="16.1823395"></rect>
                        <rect id="Rectangle-3-Copy-50" opacity="0.400000006" transform="translate(935.451962, 112.479675) rotate(-45.000000) translate(-935.451962, -112.479675) " x="927.360792" y="104.388506" width="16.1823395" height="16.1823395"></rect>
                        <rect id="Rectangle-3-Copy-10" opacity="0.600000024" transform="translate(619.604131, 254.611306) rotate(-45.000000) translate(-619.604131, -254.611306) " x="597.770685" y="232.77786" width="43.6668919" height="43.6668919"></rect>
                        <rect id="Rectangle-3-Copy-71" opacity="0.600000024" transform="translate(560.915036, 235.281842) rotate(-45.000000) translate(-560.915036, -235.281842) " x="539.08159" y="213.448396" width="43.6668919" height="43.6668919"></rect>
                        <rect id="Rectangle-3-Copy-72" opacity="0.5" transform="translate(599.015218, 204.122257) rotate(-45.000000) translate(-599.015218, -204.122257) " x="577.181772" y="182.288811" width="43.6668919" height="43.6668919"></rect>
                        <rect id="Rectangle-3-Copy-17" opacity="0.600000024" transform="translate(806.580332, 365.203220) rotate(-45.000000) translate(-806.580332, -365.203220) " x="789.501522" y="348.12441" width="34.1576205" height="34.1576205"></rect>
                        <rect id="Rectangle-3-Copy-18" opacity="0.400000006" transform="translate(655.062675, 208.717770) rotate(-45.000000) translate(-655.062675, -208.717770) " x="637.983864" y="191.63896" width="34.1576205" height="34.1576205"></rect>
                        <rect id="Rectangle-3-Copy-20" opacity="0.600000024" transform="translate(719.108719, 327.409527) rotate(-45.000000) translate(-719.108719, -327.409527) " x="707.677528" y="315.978337" width="22.8623811" height="22.8623811"></rect>
                        <rect id="Rectangle-3-Copy-19" opacity="0.600000024" transform="translate(756.367159, 158.213635) rotate(-45.000000) translate(-756.367159, -158.213635) " x="746.692348" y="148.538824" width="19.3496217" height="19.3496217"></rect>
                        <polyline id="Rectangle-3-Copy-11" points="623.457902 292.442617 654.335057 261.565462 685.212212 292.442617 654.335057 323.319773"></polyline>
                        <rect id="Rectangle-3-Copy-9" opacity="0.5" transform="translate(838.865899, 223.616065) rotate(-45.000000) translate(-838.865899, -223.616065) " x="818.277922" y="203.028089" width="41.1759529" height="41.1759529"></rect>
                    </g>
                    <g id="squares-upper-copy" opacity="0.477961754" style="mix-blend-mode: hard-light;" transform="translate(1990.074079, 1348.074079) scale(-1, -1) rotate(-315.000000) translate(-1990.074079, -1348.074079) translate(1424.574079, 700.074079)">
                        <rect id="Rectangle-3-Copy-2" transform="translate(215.296481, 538.959344) rotate(-45.000000) translate(-215.296481, -538.959344) " x="63.0588794" y="386.721742" width="304.475204" height="304.475204"></rect>
                        <rect id="Rectangle-3-Copy-3" opacity="0.699999988" transform="translate(504.569444, 661.811273) rotate(-45.000000) translate(-504.569444, -661.811273) " x="379.627092" y="536.868921" width="249.884704" height="249.884704"></rect>
                        <rect id="Rectangle-3-Copy-12" transform="translate(691.639576, 846.397509) rotate(-45.000000) translate(-691.639576, -846.397509) " x="566.147144" y="720.905077" width="250.984863" height="250.984863"></rect>
                        <rect id="Rectangle-3-Copy-24" opacity="0.600000024" transform="translate(879.502975, 728.741698) rotate(-45.000000) translate(-879.502975, -728.741698) " x="803.834551" y="653.073273" width="151.336849" height="151.336849"></rect>
                        <polyline id="Rectangle-3-Copy-53" opacity="0.800000012" points="943.880488 669.128193 1023.1126 589.896086 1102.3447 669.128193 1023.1126 748.360301"></polyline>
                        <polyline id="Rectangle-3-Copy-31" opacity="0.699999988" points="794.846727 503.492759 850.481822 447.857664 906.116917 503.492759 850.481822 559.127854"></polyline>
                        <polyline id="Rectangle-3-Copy-37" opacity="0.699999988" points="747.571682 458.389831 787.910602 418.050911 828.249521 458.389831 787.910602 498.72875"></polyline>
                        <rect id="Rectangle-3-Copy-32" opacity="0.600000024" transform="translate(809.104738, 280.791265) rotate(-45.000000) translate(-809.104738, -280.791265) " x="786.728144" y="258.414671" width="44.753189" height="44.753189"></rect>
                        <rect id="Rectangle-3-Copy-46" opacity="0.600000024" transform="translate(941.072901, 449.696195) rotate(-45.000000) translate(-941.072901, -449.696195) " x="918.696307" y="427.3196" width="44.753189" height="44.753189"></rect>
                        <polyline id="Rectangle-3-Copy-40" opacity="0.699999988" points="859.428024 563.955412 891.073307 532.310128 922.71859 563.955412 891.073307 595.600695"></polyline>
                        <polyline id="Rectangle-3-Copy-43" opacity="0.800000012" points="909.105944 822.967039 956.341044 775.731939 1003.57614 822.967039 956.341044 870.202139"></polyline>
                        <rect id="Rectangle-3-Copy-44" opacity="0.800000012" transform="translate(1008.502861, 877.612751) rotate(-45.000000) translate(-1008.502861, -877.612751) " x="975.102601" y="844.212492" width="66.8005192" height="66.8005192"></rect>
                        <polyline id="Rectangle-3-Copy-54" opacity="0.699999988" points="1058.13971 822.068311 1094.54049 785.667523 1130.94128 822.068311 1094.54049 858.469099"></polyline>
                        <rect id="Rectangle-3-Copy-56" opacity="0.699999988" transform="translate(1104.647688, 728.922210) rotate(-45.000000) translate(-1104.647688, -728.922210) " x="1087.569" y="711.843518" width="34.1573847" height="34.1573847"></rect>
                        <rect id="Rectangle-3-Copy-55" opacity="0.800000012" transform="translate(1087.775246, 934.530073) rotate(-45.000000) translate(-1087.775246, -934.530073) " x="1065.06337" y="911.818201" width="45.4237432" height="45.4237432"></rect>
                        <rect id="Rectangle-3-Copy-57" opacity="0.699999988" transform="translate(1023.193950, 790.464103) rotate(-45.000000) translate(-1023.193950, -790.464103) " x="1000.48208" y="767.752232" width="45.4237432" height="45.4237432"></rect>
                        <polyline id="Rectangle-3-Copy-45" points="889.234776 614.319773 936.469876 567.084673 983.704976 614.319773 936.469876 661.554873"></polyline>
                        <rect id="Rectangle-3-Copy-33" opacity="0.600000024" transform="translate(829.400481, 417.499356) rotate(-45.000000) translate(-829.400481, -417.499356) " x="813.749186" y="401.848061" width="31.3025898" height="31.3025898"></rect>
                        <rect id="Rectangle-3-Copy-34" opacity="0.5" transform="translate(884.226706, 259.041288) rotate(-45.000000) translate(-884.226706, -259.041288) " x="877.229668" y="252.04425" width="13.9940758" height="13.9940758"></rect>
                        <rect id="Rectangle-3-Copy-39" opacity="0.600000024" transform="translate(886.710602, 371.544125) rotate(-45.000000) translate(-886.710602, -371.544125) " x="879.713564" y="364.547087" width="13.9940758" height="13.9940758"></rect>
                        <rect id="Rectangle-3-Copy-64" opacity="0.600000024" transform="translate(1028.292675, 478.351654) rotate(-45.000000) translate(-1028.292675, -478.351654) " x="1021.29564" y="471.354616" width="13.9940758" height="13.9940758"></rect>
                        <rect id="Rectangle-3-Copy-60" opacity="0.600000024" transform="translate(886.710602, 418.738149) rotate(-45.000000) translate(-886.710602, -418.738149) " x="879.713564" y="411.741112" width="13.9940758" height="13.9940758"></rect>
                        <rect id="Rectangle-3-Copy-52" opacity="0.5" transform="translate(1010.905403, 537.965159) rotate(-45.000000) translate(-1010.905403, -537.965159) " x="1003.90836" y="530.968121" width="13.9940758" height="13.9940758"></rect>
                        <rect id="Rectangle-3-Copy-62" opacity="0.5" transform="translate(976.130858, 187.735819) rotate(-45.000000) translate(-976.130858, -187.735819) " x="969.133821" y="180.738782" width="13.9940758" height="13.9940758"></rect>
                        <rect id="Rectangle-3-Copy-47" opacity="0.600000024" transform="translate(953.775794, 522.334266) rotate(-45.000000) translate(-953.775794, -522.334266) " x="946.778756" y="515.337228" width="13.9940758" height="13.9940758"></rect>
                        <rect id="Rectangle-3-Copy-35" opacity="0.400000006" transform="translate(824.613201, 90.136358) rotate(-45.000000) translate(-824.613201, -90.136358) " x="817.616163" y="83.1393204" width="13.9940758" height="13.9940758"></rect>
                        <rect id="Rectangle-3-Copy-36" opacity="0.5" transform="translate(869.323329, 187.008303) rotate(-45.000000) translate(-869.323329, -187.008303) " x="862.326292" y="180.011265" width="13.9940758" height="13.9940758"></rect>
                        <rect id="Rectangle-3-Copy-25" opacity="0.900000036" transform="translate(902.770737, 1007.850750) rotate(-45.000000) translate(-902.770737, -1007.850750) " x="777.278306" y="882.358318" width="250.984863" height="250.984863"></rect>
                        <polyline id="Rectangle-3-Copy-14" opacity="0.699999988" points="636.525185 601.525005 758.508771 479.541418 880.492358 601.525005 758.508771 723.508591"></polyline>
                        <rect id="Rectangle-3-Copy-4" transform="translate(438.922724, 399.936768) rotate(-45.000000) translate(-438.922724, -399.936768) " x="344.592195" y="305.606239" width="188.661058" height="188.661058"></rect>
                        <polyline id="Rectangle-3-Copy-5" points="511.682581 477.861068 628.622346 360.921303 745.562111 477.861068 628.622346 594.800833"></polyline>
                        <polyline id="Rectangle-3-Copy-6" opacity="0.800000012" points="511.682581 327.694393 580.295407 259.081566 648.908234 327.694393 580.295407 396.307219"></polyline>
                        <polyline id="Rectangle-3-Copy-7" opacity="0.699999988" points="457.036868 271.635932 506.849674 221.823126 556.66248 271.635932 506.849674 321.448738"></polyline>
                        <rect id="Rectangle-3-Copy-41" transform="translate(300.686304, 341.185020) rotate(-45.000000) translate(-300.686304, -341.185020) " x="265.463331" y="305.962047" width="70.4459458" height="70.4459458"></rect>
                        <polyline id="Rectangle-3-Copy-27" points="683.071406 396.092599 741.521162 337.642844 799.970917 396.092599 741.521162 454.542355"></polyline>
                        <rect id="Rectangle-3-Copy-38" opacity="0.5" transform="translate(907.671238, 163.258811) rotate(-45.000000) translate(-907.671238, -163.258811) " x="901.66021" y="157.247783" width="12.0220571" height="12.0220571"></rect>
                        <rect id="Rectangle-3-Copy-28" opacity="0.400000006" transform="translate(756.294313, 227.056028) rotate(-45.000000) translate(-756.294313, -227.056028) " x="736.132734" y="206.894448" width="40.3231587" height="40.3231587"></rect>
                        <rect id="Rectangle-3-Copy-29" opacity="0.600000024" transform="translate(847.504857, 327.370588) rotate(-45.000000) translate(-847.504857, -327.370588) " x="833.102872" y="312.968604" width="28.8039682" height="28.8039682"></rect>
                        <rect id="Rectangle-3-Copy-61" opacity="0.600000024" transform="translate(1001.506410, 364.629028) rotate(-45.000000) translate(-1001.506410, -364.629028) " x="987.104426" y="350.227044" width="28.8039682" height="28.8039682"></rect>
                        <rect id="Rectangle-3-Copy-15" opacity="0.600000024" transform="translate(690.362356, 256.436932) rotate(-45.000000) translate(-690.362356, -256.436932) " x="669.399458" y="235.474034" width="41.9257956" height="41.9257956"></rect>
                        <polyline id="Rectangle-3-Copy-16" points="640.845174 352.305866 676.939865 316.211175 713.034556 352.305866 676.939865 388.400557"></polyline>
                        <rect id="Rectangle-3-Copy-8" opacity="0.600000024" transform="translate(754.907094, 301.110502) rotate(-45.000000) translate(-754.907094, -301.110502) " x="740.995566" y="287.198974" width="27.8230561" height="27.8230561"></rect>
                        <rect id="Rectangle-3-Copy-21" opacity="0.400000006" transform="translate(848.205645, 134.327486) rotate(-45.000000) translate(-848.205645, -134.327486) " x="843.846407" y="129.968249" width="8.71847561" height="8.71847561"></rect>
                        <rect id="Rectangle-3-Copy-63" opacity="0.400000006" transform="translate(982.336030, 270.941768) rotate(-45.000000) translate(-982.336030, -270.941768) " x="977.976792" y="266.58253" width="8.71847561" height="8.71847561"></rect>
                        <rect id="Rectangle-3-Copy-65" opacity="0.400000006" transform="translate(1004.691094, 442.330593) rotate(-45.000000) translate(-1004.691094, -442.330593) " x="1000.33186" y="437.971355" width="8.71847561" height="8.71847561"></rect>
                        <rect id="Rectangle-3-Copy-49" opacity="0.5" transform="translate(917.754733, 220.066746) rotate(-45.000000) translate(-917.754733, -220.066746) " x="913.395496" y="215.707508" width="8.71847561" height="8.71847561"></rect>
                        <rect id="Rectangle-3-Copy-30" opacity="0.300000012" transform="translate(848.588237, 17.239449) rotate(-45.000000) translate(-848.588237, -17.239449) " x="843.958466" y="12.6096779" width="9.25954289" height="9.25954289"></rect>
                        <rect id="Rectangle-3-Copy-42" opacity="0.300000012" transform="translate(805.336952, 3.794917) rotate(-45.000000) translate(-805.336952, -3.794917) " x="803.188382" y="1.64634659" width="4.29714017" height="4.29714017"></rect>
                        <rect id="Rectangle-3-Copy-51" opacity="0.300000012" transform="translate(850.047080, 60.924525) rotate(-45.000000) translate(-850.047080, -60.924525) " x="847.89851" y="58.7759551" width="4.29714017" height="4.29714017"></rect>
                        <rect id="Rectangle-3-Copy-26" opacity="0.400000006" transform="translate(895.709626, 79.264214) rotate(-45.000000) translate(-895.709626, -79.264214) " x="887.618456" y="71.1730446" width="16.1823395" height="16.1823395"></rect>
                        <rect id="Rectangle-3-Copy-48" opacity="0.5" transform="translate(931.127518, 322.686024) rotate(-45.000000) translate(-931.127518, -322.686024) " x="923.036348" y="314.594855" width="16.1823395" height="16.1823395"></rect>
                        <rect id="Rectangle-3-Copy-22" opacity="0.600000024" transform="translate(692.030152, 173.652263) rotate(-45.000000) translate(-692.030152, -173.652263) " x="683.938982" y="165.561093" width="16.1823395" height="16.1823395"></rect>
                        <rect id="Rectangle-3-Copy-23" opacity="0.5" transform="translate(793.869889, 173.652263) rotate(-45.000000) translate(-793.869889, -173.652263) " x="785.778719" y="165.561093" width="16.1823395" height="16.1823395"></rect>
                        <rect id="Rectangle-3-Copy-50" opacity="0.400000006" transform="translate(935.451962, 112.479675) rotate(-45.000000) translate(-935.451962, -112.479675) " x="927.360792" y="104.388506" width="16.1823395" height="16.1823395"></rect>
                        <rect id="Rectangle-3-Copy-10" opacity="0.600000024" transform="translate(619.604131, 254.611306) rotate(-45.000000) translate(-619.604131, -254.611306) " x="597.770685" y="232.77786" width="43.6668919" height="43.6668919"></rect>
                        <rect id="Rectangle-3-Copy-71" opacity="0.600000024" transform="translate(560.915036, 235.281842) rotate(-45.000000) translate(-560.915036, -235.281842) " x="539.08159" y="213.448396" width="43.6668919" height="43.6668919"></rect>
                        <rect id="Rectangle-3-Copy-72" opacity="0.5" transform="translate(599.015218, 204.122257) rotate(-45.000000) translate(-599.015218, -204.122257) " x="577.181772" y="182.288811" width="43.6668919" height="43.6668919"></rect>
                        <rect id="Rectangle-3-Copy-17" opacity="0.600000024" transform="translate(806.580332, 365.203220) rotate(-45.000000) translate(-806.580332, -365.203220) " x="789.501522" y="348.12441" width="34.1576205" height="34.1576205"></rect>
                        <rect id="Rectangle-3-Copy-18" opacity="0.400000006" transform="translate(655.062675, 208.717770) rotate(-45.000000) translate(-655.062675, -208.717770) " x="637.983864" y="191.63896" width="34.1576205" height="34.1576205"></rect>
                        <rect id="Rectangle-3-Copy-20" opacity="0.600000024" transform="translate(719.108719, 327.409527) rotate(-45.000000) translate(-719.108719, -327.409527) " x="707.677528" y="315.978337" width="22.8623811" height="22.8623811"></rect>
                        <rect id="Rectangle-3-Copy-19" opacity="0.600000024" transform="translate(756.367159, 158.213635) rotate(-45.000000) translate(-756.367159, -158.213635) " x="746.692348" y="148.538824" width="19.3496217" height="19.3496217"></rect>
                        <polyline id="Rectangle-3-Copy-11" points="623.457902 292.442617 654.335057 261.565462 685.212212 292.442617 654.335057 323.319773"></polyline>
                        <rect id="Rectangle-3-Copy-9" opacity="0.5" transform="translate(838.865899, 223.616065) rotate(-45.000000) translate(-838.865899, -223.616065) " x="818.277922" y="203.028089" width="41.1759529" height="41.1759529"></rect>
                    </g>
                </g>
            </g>
        </g>
    </g>
</svg>