<svg xmlns="http://www.w3.org/2000/svg" viewBox="0 0 135 40"><title>gplay</title><path class="ap-bg" d="M130.2 39.1H4.73a3.83 3.83 0 0 1-3.84-3.83V4.72A3.84 3.84 0 0 1 4.73.89H130.2a3.83 3.83 0 0 1 3.8 3.83v30.55a3.83 3.83 0 0 1-3.8 3.83z"/><path class="ap-border" d="M130.2 0H4.73A4.73 4.73 0 0 0 0 4.73v30.54A4.74 4.74 0 0 0 4.73 40H130.2a4.8 4.8 0 0 0 4.8-4.73V4.73A4.8 4.8 0 0 0 130.2 0zm0 39.1H4.73a3.83 3.83 0 0 1-3.84-3.83V4.72A3.84 3.84 0 0 1 4.73.89H130.2a3.83 3.83 0 0 1 3.8 3.83v30.55a3.83 3.83 0 0 1-3.8 3.83z"/><path d="M47.42 10.23a2.71 2.71 0 0 1-.75 2 2.91 2.91 0 0 1-2.2.89 3.09 3.09 0 0 1-3.12-3.06v-.07a3.09 3.09 0 0 1 3-3.13h.07a3.1 3.1 0 0 1 1.23.25 2.47 2.47 0 0 1 .94.67l-.53.53a2 2 0 0 0-1.64-.71 2.32 2.32 0 0 0-2.33 2.31v.08a2.36 2.36 0 0 0 4 1.73 1.89 1.89 0 0 0 .5-1.22h-2.12v-.72h2.91a2.54 2.54 0 0 1 .04.45zM52 7.73h-2.7v1.9h2.46v.72H49.3v1.9H52V13h-3.5V7H52zM55.28 13h-.77V7.73h-1.68V7H57v.74h-1.72zm4.66 0V7h.77v6zm4.19 0h-.77V7.73h-1.68V7h4.12v.74h-1.67zm9.48-.78a3.12 3.12 0 0 1-4.4 0 3.07 3.07 0 0 1-.88-2.22 3.08 3.08 0 0 1 5.26-2.24 3.07 3.07 0 0 1 .9 2.24 3.07 3.07 0 0 1-.88 2.22zm-3.83-.5a2.31 2.31 0 0 0 3.26 0 2.35 2.35 0 0 0 .67-1.72A2.35 2.35 0 0 0 73 8.27a2.31 2.31 0 0 0-3.26 0 2.35 2.35 0 0 0-.63 1.73 2.35 2.35 0 0 0 .67 1.72zm5.8 1.28V7h.94l2.92 4.67V7h.77v6h-.8l-3.06-4.9V13zm-7.44 8.74A4.25 4.25 0 1 0 72.41 26a4.19 4.19 0 0 0-4.13-4.25zm0 6.83a2.58 2.58 0 1 1 2.39-2.75v.17a2.46 2.46 0 0 1-2.34 2.58zm-9.31-6.83A4.25 4.25 0 1 0 63.09 26 4.19 4.19 0 0 0 59 21.74h-.13zm0 6.83a2.58 2.58 0 1 1 2.38-2.76v.18a2.46 2.46 0 0 1-2.34 2.58h-.05zm-11.09-5.52v1.8h4.32a3.77 3.77 0 0 1-1 2.27 4.42 4.42 0 0 1-3.33 1.32 4.8 4.8 0 0 1 0-9.6A4.6 4.6 0 0 1 51 20.13l1.27-1.27A6.29 6.29 0 0 0 47.74 17a6.61 6.61 0 1 0-.51 13.21h.51a5.84 5.84 0 0 0 6.17-6.07 5.87 5.87 0 0 0-.1-1.13zm45.31 1.4a3.92 3.92 0 0 0-7.65 1.28v.26a4.16 4.16 0 0 0 4.07 4.25h.15a4.23 4.23 0 0 0 3.54-1.88l-1.45-1a2.43 2.43 0 0 1-2.09 1.18 2.16 2.16 0 0 1-2.06-1.29l5.69-2.35zm-5.8 1.42a2.33 2.33 0 0 1 2.17-2.48 1.65 1.65 0 0 1 1.58.9zM82.63 30h1.87V17.49h-1.87zm-3.06-7.3h-.07a3 3 0 0 0-2.24-1 4.26 4.26 0 0 0 0 8.51 2.9 2.9 0 0 0 2.24-1h.06v.61c0 1.63-.87 2.5-2.27 2.5a2.35 2.35 0 0 1-2.14-1.51l-1.63.68A4 4 0 0 0 77.29 34c2.19 0 4-1.29 4-4.43V22h-1.72zm-2.14 5.88a2.59 2.59 0 0 1 0-5.16 2.4 2.4 0 0 1 2.27 2.52V26a2.38 2.38 0 0 1-2.17 2.57h-.1zm24.38-11.08h-4.48V30h1.87v-4.74h2.61a3.89 3.89 0 1 0 0-7.76zm0 6H99.2v-4.27h2.65a2.14 2.14 0 0 1 0 4.29zm11.53-1.8a3.5 3.5 0 0 0-3.34 1.91l1.66.69a1.77 1.77 0 0 1 1.7-.92 1.8 1.8 0 0 1 2 1.58v.16a4.13 4.13 0 0 0-1.95-.48c-1.79 0-3.6 1-3.6 2.81a2.89 2.89 0 0 0 3 2.75h.08a2.63 2.63 0 0 0 2.4-1.2h.06v1h1.8v-4.81c0-2.19-1.66-3.46-3.79-3.46zm-.23 6.85c-.61 0-1.46-.31-1.46-1.06 0-1 1.06-1.33 2-1.33a3.32 3.32 0 0 1 1.7.42 2.26 2.26 0 0 1-2.19 2zM123.74 22l-2.14 5.42h-.06L119.32 22h-2l3.33 7.58-1.9 4.21h1.95L125.82 22zm-16.81 8h1.87V17.49h-1.87zM22.34 20L10.58 8.24a2 2 0 0 0-.11.7v22.11a2 2 0 0 0 .11.7zm9.43-1l-4.65-2.65L23.46 20l3.65 3.65L31.77 21c.51-.29.8-.66.79-1a1.34 1.34 0 0 0-.79-1zm-19.5 13.09l14-8-3.37-3.39-11.65 11.64a1.66 1.66 0 0 0 1.02-.25zM11.25 7.64L22.9 19.29l3.41-3.41-14-8a1.66 1.66 0 0 0-1.06-.24z"/></svg>
