<?xml version="1.0" encoding="utf-8"?>
<!-- Generator: Adobe Illustrator 21.0.2, SVG Export Plug-In . SVG Version: 6.00 Build 0)  -->
<svg version="1.1" id="Layer_1" xmlns="http://www.w3.org/2000/svg" xmlns:xlink="http://www.w3.org/1999/xlink" x="0px" y="0px"
	 viewBox="0 0 715.7 195" style="enable-background:new 0 0 715.7 195;" xml:space="preserve">
<style type="text/css">
	.st0{fill:#071D49;}
	.st1{fill:#FFFFFF;}
</style>
<path id="c_1_" class="st0" d="M580.8,124.8c-8.8,0-15.1-6.8-15.1-15.3S572,94,580.8,94c3.7,0,6.9,1.2,9.6,2.9l-1.2,1.8
	c-2.4-1.5-5.1-2.6-8.4-2.6c-7.6,0-12.8,5.8-12.8,13.2c0,7.5,5.2,13.4,12.8,13.4c3.3,0,6-1.1,8.4-2.6l1.2,1.8
	C587.8,123.6,584.5,124.8,580.8,124.8"/>
<path id="o" class="st0" d="M624.5,96c-7.2,0-12.1,5.9-12.1,13.3c0,7.5,4.8,13.4,12.1,13.4c7.2,0,12.1-5.9,12.1-13.4
	C636.7,101.8,631.8,96,624.5,96 M624.5,124.8c-8.4,0-14.4-6.7-14.4-15.4S616.2,94,624.6,94s14.4,6.6,14.4,15.3
	S632.8,124.8,624.5,124.8"/>
<path id="s" class="st0" d="M669.1,124.8c-3.8,0-7.1-1.4-10.1-3.5l1.1-1.7c2.7,1.9,5.6,3.3,9.1,3.3c4.3,0,7.1-2.6,7.1-5.9
	c0-8.4-15.6-5.4-15.6-15.4c0-3.9,3.3-7.6,8.9-7.6c3.1,0,5.9,1,8.6,2.9l-1.1,1.8c-2.6-1.9-4.8-2.7-7.5-2.7c-4.5,0-6.8,2.6-6.8,5.4
	c0,8.5,15.6,5.3,15.6,15.2C678.3,120.9,674.7,124.8,669.1,124.8"/>
<path id="t_1_" class="st0" d="M705.4,96.6v20.6c0,3.7,1.8,5.5,5.3,5.5c1.4,0,2.8-0.2,3.9-0.5l0.2,2.1c-1.4,0.3-2.6,0.5-4.1,0.5
	c-4.9,0-7.6-2.4-7.6-7.6V96.7h-5.3v-1.1l5.3-1V87l2.3-1.6v9.3h9.9v2.1h-9.9L705.4,96.6L705.4,96.6z"/>
<path id="x" class="st0" d="M508.6,123.3l-17.1-25.9c-0.1-0.1-0.1-0.3,0-0.5L508,72.7c0.2-0.4,0.3-0.8,0.1-1.2
	c-0.2-0.4-0.6-0.6-1-0.6h-5.9c-0.4,0-0.8,0.2-1,0.5l-12.4,18.9c-0.1,0.1-0.2,0.2-0.4,0.2c-0.2,0-0.3-0.1-0.4-0.2l-12.4-18.9
	c-0.2-0.3-0.6-0.5-1-0.5h-5.9c-0.4,0-0.8,0.2-1,0.6s-0.2,0.8,0.1,1.2L483,96.9c0.1,0.2,0.1,0.3,0,0.5l-17.5,25.9
	c-0.2,0.4-0.3,0.8-0.1,1.2c0.2,0.4,0.6,0.6,1,0.6h5.9c0.4,0,0.8-0.2,1-0.5l13.5-20.4c0.1-0.1,0.2-0.2,0.4-0.2c0.2,0,0.3,0.1,0.4,0.2
	l13.3,20.4c0.2,0.3,0.6,0.5,1,0.5h5.9c0.4,0,0.8-0.2,1-0.6C508.8,124,508.8,123.6,508.6,123.3L508.6,123.3z"/>
<path id="h" class="st0" d="M229.9,70.9H225c-0.7,0-1.2,0.5-1.2,1.2v51.8c0,0.7,0.5,1.2,1.2,1.2h4.9c0.7,0,1.2-0.5,1.2-1.2v-22.5
	c0-0.3,0.2-0.5,0.5-0.5h25.2c0.3,0,0.5,0.2,0.5,0.5v22.5c0,0.7,0.5,1.2,1.2,1.2h4.9c0.7,0,1.2-0.5,1.2-1.2V72c0-0.6-0.5-1.2-1.2-1.2
	h-4.9c-0.7,0-1.2,0.5-1.2,1.2v21.6c0,0.3-0.2,0.5-0.5,0.5h-25.2c-0.3,0-0.5-0.2-0.5-0.5V72.1C231.1,71.4,230.6,70.9,229.9,70.9"/>
<path id="c" class="st0" d="M427.3,76.5c5.3,0,10.4,2,14.4,5.5c0.5,0.4,1.1,0.4,1.6,0l3.1-3.1c0.2-0.2,0.3-0.5,0.3-0.8
	s-0.1-0.6-0.4-0.8c-11.2-10.3-28.6-9.8-39.1,1.2c-10.6,10.9-10.5,28.3,0.1,39.2c10.6,10.9,28,11.3,39.1,0.9c0.2-0.2,0.4-0.5,0.4-0.8
	s-0.1-0.6-0.4-0.8l-3.1-3.1c-0.4-0.4-1.1-0.4-1.6,0c-3.9,3.6-9.1,5.6-14.5,5.6c-5.6,0-11-2.2-14.9-6.3c-8.1-8.5-8.1-21.8,0-30.3
	C416.3,78.8,421.7,76.5,427.3,76.5"/>
<path id="t" class="st0" d="M346.2,72.1v4.4c0,0.7,0.5,1.2,1.2,1.2h13.4c0.3,0,0.5,0.2,0.5,0.5V124c0,0.7,0.5,1.2,1.2,1.2h4.9
	c0.7,0,1.2-0.5,1.2-1.2V78.1c0-0.3,0.2-0.5,0.5-0.5h13.4c0.7,0,1.2-0.5,1.2-1.2V72c0-0.6-0.5-1.2-1.2-1.2h-35
	C346.7,70.9,346.2,71.5,346.2,72.1"/>
<path id="a" class="st0" d="M302.3,103.8l8.2-18.5c0.1-0.2,0.2-0.3,0.4-0.3c0.2,0,0.3,0.1,0.4,0.3l8.2,18.5c0.1,0.1,0.1,0.3,0,0.4
	s-0.2,0.2-0.4,0.2h-16.3c-0.2,0-0.3-0.1-0.4-0.2C302.3,104.1,302.3,103.9,302.3,103.8 M286.8,125.1h5.3c0.5,0,0.9-0.3,1.1-0.7
	l5.7-12.9c0.1-0.2,0.2-0.3,0.4-0.3h23.2c0.2,0,0.3,0.1,0.4,0.3l5.7,12.9c0.2,0.4,0.6,0.7,1.1,0.7h5.3c0.4,0,0.8-0.2,1-0.5
	s0.2-0.8,0.1-1.1l-24-53.4c-0.2-0.4-0.6-0.7-1.1-0.7s-0.9,0.3-1.1,0.7l-24.2,53.3c-0.2,0.4-0.1,0.8,0.1,1.1
	C286,124.9,286.4,125.1,286.8,125.1"/>
<rect id="pipe" x="540.3" y="71.1" class="st0" width="1" height="53.1"/>
<g id="emblem">
	<g>
		<path class="st0" d="M152.4,0.6H41.9C18.7,0.6,0,19.4,0,42.5v110.6C0,176.3,18.8,195,41.9,195h110.5c23.1,0,41.9-18.8,41.9-41.9
			V42.5C194.3,19.4,175.5,0.6,152.4,0.6z"/>
	</g>
	<path class="st1" d="M150.4,124.6c-0.5-0.8-1.1-1.6-1.7-2.3l0,0l0,0c-2-2.4-4.5-4.5-7.4-6c-0.1-0.1-0.2-0.1-0.3-0.2
		c-0.1,0-0.1-0.1-0.2-0.1l0,0c0,0-0.1,0-0.1-0.1c-3-1.4-6.2-2.3-9.6-2.7c-4.4-0.6-8.6-0.2-12.5,1c0.3-2.8,0.2-6.2-1.7-9.2
		c-0.3-0.5-0.6-0.9-0.9-1.2c-2.5-3.3-6.1-7.2-11.5-10c-2-1-4.2-1.9-6.7-2.5c-2.4-0.6-4.8-0.9-7.2-0.9c-3.2,0-6.5,0.6-9.5,1.6
		c-0.3,0.1-0.6,0-0.8-0.2c-0.2-0.2-0.3-0.5-0.2-0.8l1.7-6.9c0.1-0.6,0.6-1,1.1-1.2c4.9-1.3,9.6-3.3,13.9-5.9
		c9.8-5.9,16.3-14.4,18.8-24.5c1.9-7.5,0.5-15.2-3.6-20.5c-3.4-4.4-8.6-6.9-14.2-6.9c-11,0-18.4,7.6-22.3,22.5
		c-1.1,4.3-2.7,10.5-5.2,20.6c-0.2,0.7-0.8,1.2-1.6,1.2c-0.1,0-0.2,0-0.2,0c-3.4-0.5-6.1-2-8-4.4c-1.2-1.5-2-3.3-2.3-5.2
		c-0.3-1.5-1.6-2.6-3.1-2.6h-8.6c-0.9,0-1.8,0.4-2.4,1.1c-0.6,0.7-0.9,1.6-0.8,2.4c0.6,4.9,2.5,9.5,5.5,13.4c3.9,5,9.6,8.5,15.9,9.7
		c0.4,0.1,0.8,0.3,1,0.7c0.2,0.4,0.3,0.8,0.2,1.2L54.1,133c-0.2,0.9,0,1.9,0.6,2.7s1.5,1.2,2.5,1.2H66c1.4,0,2.7-1,3-2.4l3-12.1
		c2.7-10.8,9.6-17.5,18-17.5c1.3,0,2.6,0.2,3.9,0.5c2.7,0.7,4.8,1.8,6.6,3.4l0,0c2.1,1.8,2.7,4.7,2.2,7.4c-0.5,3.5-1.3,8.3-2,13
		c-1.2,2.7-2.1,5.6-2.5,8.8c-1,8.1,1.1,15.8,6,21.7c4.6,5.6,11.5,9.2,19.3,10.2c2.9,0.4,5.9,0.4,8.7,0c4.3-0.6,8.4-2.3,11.9-5
		c0.6-0.5,1-1.2,1.1-2s-0.2-1.6-0.8-2.2l-5.4-5.4c-1-0.9-2.5-1.1-3.6-0.3c-1.4,1-3,1.6-4.7,1.9c-1.9,0.3-3.7,0.3-5.5,0.1
		c-9.2-1.2-14.6-8.2-13.5-17.4c1.2-9.4,8.1-14.9,17.2-13.7c2,0.3,3.9,0.8,5.8,1.7c1.5,0.8,2.8,1.9,3.9,3.3c0.8,1.1,2.3,1.5,3.5,0.9
		l6.9-3.4c0.7-0.4,1.3-1,1.5-1.8C151,126.1,150.8,125.3,150.4,124.6z M87.1,62.5c1.1-4.5,2-8.1,2.8-11C92.8,40,96.2,40,97.8,40
		c1,0,1.9,0.5,2.5,1.3c1.3,1.7,1.7,4.7,0.9,7.6c-1.1,4.1-4.8,10.5-11.7,15.2c-0.3,0.2-0.6,0.3-0.9,0.3c-0.5,0-1-0.2-1.3-0.6
		C87.1,63.5,87,62.9,87.1,62.5z"/>
</g>
</svg>
