<svg id="Layer_1" xmlns="http://www.w3.org/2000/svg" viewBox="0 0 715.7 195">
    <style>
        .st0{fill:#071d49}.st1{fill:#fff}
    </style>
    <path id="c_1_" class="st0" d="M580.8 124.8c-8.8 0-15.1-6.8-15.1-15.3S572 94 580.8 94c3.7 0 6.9 1.2 9.6 2.9l-1.2 1.8c-2.4-1.5-5.1-2.6-8.4-2.6-7.6 0-12.8 5.8-12.8 13.2 0 7.5 5.2 13.4 12.8 13.4 3.3 0 6-1.1 8.4-2.6l1.2 1.8c-2.6 1.7-5.9 2.9-9.6 2.9"/>
    <path id="o" class="st0" d="M624.5 96c-7.2 0-12.1 5.9-12.1 13.3 0 7.5 4.8 13.4 12.1 13.4 7.2 0 12.1-5.9 12.1-13.4.1-7.5-4.8-13.3-12.1-13.3m0 28.8c-8.4 0-14.4-6.7-14.4-15.4S616.2 94 624.6 94s14.4 6.6 14.4 15.3-6.2 15.5-14.5 15.5"/>
    <path id="s" class="st0" d="M669.1 124.8c-3.8 0-7.1-1.4-10.1-3.5l1.1-1.7c2.7 1.9 5.6 3.3 9.1 3.3 4.3 0 7.1-2.6 7.1-5.9 0-8.4-15.6-5.4-15.6-15.4 0-3.9 3.3-7.6 8.9-7.6 3.1 0 5.9 1 8.6 2.9l-1.1 1.8c-2.6-1.9-4.8-2.7-7.5-2.7-4.5 0-6.8 2.6-6.8 5.4 0 8.5 15.6 5.3 15.6 15.2-.1 4.3-3.7 8.2-9.3 8.2"/>
    <path id="t_1_" class="st0" d="M705.4 96.6v20.6c0 3.7 1.8 5.5 5.3 5.5 1.4 0 2.8-.2 3.9-.5l.2 2.1c-1.4.3-2.6.5-4.1.5-4.9 0-7.6-2.4-7.6-7.6V96.7h-5.3v-1.1l5.3-1V87l2.3-1.6v9.3h9.9v2.1h-9.9v-.2z"/>
    <path id="x" class="st0" d="M508.6 123.3l-17.1-25.9c-.1-.1-.1-.3 0-.5L508 72.7c.2-.4.3-.8.1-1.2-.2-.4-.6-.6-1-.6h-5.9c-.4 0-.8.2-1 .5l-12.4 18.9c-.1.1-.2.2-.4.2s-.3-.1-.4-.2l-12.4-18.9c-.2-.3-.6-.5-1-.5h-5.9c-.4 0-.8.2-1 .6s-.2.8.1 1.2L483 96.9c.1.2.1.3 0 .5l-17.5 25.9c-.2.4-.3.8-.1 1.2.2.4.6.6 1 .6h5.9c.4 0 .8-.2 1-.5l13.5-20.4c.1-.1.2-.2.4-.2s.3.1.4.2l13.3 20.4c.2.3.6.5 1 .5h5.9c.4 0 .8-.2 1-.6 0-.5 0-.9-.2-1.2z"/>
    <path id="h" class="st0" d="M229.9 70.9H225c-.7 0-1.2.5-1.2 1.2v51.8c0 .7.5 1.2 1.2 1.2h4.9c.7 0 1.2-.5 1.2-1.2v-22.5c0-.3.2-.5.5-.5h25.2c.3 0 .5.2.5.5v22.5c0 .7.5 1.2 1.2 1.2h4.9c.7 0 1.2-.5 1.2-1.2V72c0-.6-.5-1.2-1.2-1.2h-4.9c-.7 0-1.2.5-1.2 1.2v21.6c0 .3-.2.5-.5.5h-25.2c-.3 0-.5-.2-.5-.5V72.1c0-.7-.5-1.2-1.2-1.2"/>
    <path id="c" class="st0" d="M427.3 76.5c5.3 0 10.4 2 14.4 5.5.5.4 1.1.4 1.6 0l3.1-3.1c.2-.2.3-.5.3-.8s-.1-.6-.4-.8c-11.2-10.3-28.6-9.8-39.1 1.2-10.6 10.9-10.5 28.3.1 39.2 10.6 10.9 28 11.3 39.1.9.2-.2.4-.5.4-.8s-.1-.6-.4-.8l-3.1-3.1c-.4-.4-1.1-.4-1.6 0-3.9 3.6-9.1 5.6-14.5 5.6-5.6 0-11-2.2-14.9-6.3-8.1-8.5-8.1-21.8 0-30.3 4-4.1 9.4-6.4 15-6.4"/>
    <path id="t" class="st0" d="M346.2 72.1v4.4c0 .7.5 1.2 1.2 1.2h13.4c.3 0 .5.2.5.5V124c0 .7.5 1.2 1.2 1.2h4.9c.7 0 1.2-.5 1.2-1.2V78.1c0-.3.2-.5.5-.5h13.4c.7 0 1.2-.5 1.2-1.2V72c0-.6-.5-1.2-1.2-1.2h-35c-.8.1-1.3.7-1.3 1.3"/>
    <path id="a" class="st0" d="M302.3 103.8l8.2-18.5c.1-.2.2-.3.4-.3s.3.1.4.3l8.2 18.5c.1.1.1.3 0 .4s-.2.2-.4.2h-16.3c-.2 0-.3-.1-.4-.2-.1-.1-.1-.3-.1-.4m-15.5 21.3h5.3c.5 0 .9-.3 1.1-.7l5.7-12.9c.1-.2.2-.3.4-.3h23.2c.2 0 .3.1.4.3l5.7 12.9c.2.4.6.7 1.1.7h5.3c.4 0 .8-.2 1-.5s.2-.8.1-1.1l-24-53.4c-.2-.4-.6-.7-1.1-.7s-.9.3-1.1.7l-24.2 53.3c-.2.4-.1.8.1 1.1.2.4.6.6 1 .6"/>
    <path id="pipe" class="st0" d="M540.3 71.1h1v53.1h-1z"/>
    <g id="emblem">
        <path class="st0" d="M152.4.6H41.9C18.7.6 0 19.4 0 42.5v110.6C0 176.3 18.8 195 41.9 195h110.5c23.1 0 41.9-18.8 41.9-41.9V42.5c0-23.1-18.8-41.9-41.9-41.9z"/>
        <path class="st1" d="M150.4 124.6c-.5-.8-1.1-1.6-1.7-2.3-2-2.4-4.5-4.5-7.4-6-.1-.1-.2-.1-.3-.2-.1 0-.1-.1-.2-.1 0 0-.1 0-.1-.1-3-1.4-6.2-2.3-9.6-2.7-4.4-.6-8.6-.2-12.5 1 .3-2.8.2-6.2-1.7-9.2-.3-.5-.6-.9-.9-1.2-2.5-3.3-6.1-7.2-11.5-10-2-1-4.2-1.9-6.7-2.5-2.4-.6-4.8-.9-7.2-.9-3.2 0-6.5.6-9.5 1.6-.3.1-.6 0-.8-.2-.2-.2-.3-.5-.2-.8l1.7-6.9c.1-.6.6-1 1.1-1.2 4.9-1.3 9.6-3.3 13.9-5.9 9.8-5.9 16.3-14.4 18.8-24.5 1.9-7.5.5-15.2-3.6-20.5-3.4-4.4-8.6-6.9-14.2-6.9-11 0-18.4 7.6-22.3 22.5-1.1 4.3-2.7 10.5-5.2 20.6-.2.7-.8 1.2-1.6 1.2h-.2c-3.4-.5-6.1-2-8-4.4-1.2-1.5-2-3.3-2.3-5.2-.3-1.5-1.6-2.6-3.1-2.6h-8.6c-.9 0-1.8.4-2.4 1.1-.6.7-.9 1.6-.8 2.4.6 4.9 2.5 9.5 5.5 13.4 3.9 5 9.6 8.5 15.9 9.7.4.1.8.3 1 .7.2.4.3.8.2 1.2L54.1 133c-.2.9 0 1.9.6 2.7s1.5 1.2 2.5 1.2H66c1.4 0 2.7-1 3-2.4l3-12.1c2.7-10.8 9.6-17.5 18-17.5 1.3 0 2.6.2 3.9.5 2.7.7 4.8 1.8 6.6 3.4 2.1 1.8 2.7 4.7 2.2 7.4-.5 3.5-1.3 8.3-2 13-1.2 2.7-2.1 5.6-2.5 8.8-1 8.1 1.1 15.8 6 21.7 4.6 5.6 11.5 9.2 19.3 10.2 2.9.4 5.9.4 8.7 0 4.3-.6 8.4-2.3 11.9-5 .6-.5 1-1.2 1.1-2s-.2-1.6-.8-2.2l-5.4-5.4c-1-.9-2.5-1.1-3.6-.3-1.4 1-3 1.6-4.7 1.9-1.9.3-3.7.3-5.5.1-9.2-1.2-14.6-8.2-13.5-17.4 1.2-9.4 8.1-14.9 17.2-13.7 2 .3 3.9.8 5.8 1.7 1.5.8 2.8 1.9 3.9 3.3.8 1.1 2.3 1.5 3.5.9l6.9-3.4c.7-.4 1.3-1 1.5-1.8.5-.5.3-1.3-.1-2zM87.1 62.5c1.1-4.5 2-8.1 2.8-11C92.8 40 96.2 40 97.8 40c1 0 1.9.5 2.5 1.3 1.3 1.7 1.7 4.7.9 7.6-1.1 4.1-4.8 10.5-11.7 15.2-.3.2-.6.3-.9.3-.5 0-1-.2-1.3-.6-.2-.3-.3-.9-.2-1.3z"/>
    </g>
</svg>
