<svg width="2265" height="2265" viewBox="0 0 2265 2265" xmlns="http://www.w3.org/2000/svg">
    <title>
        squares lower
    </title>
    <g style="mix-blend-mode:hard-light" fill="#FFF" fill-rule="evenodd" opacity=".48">
        <path d="M414.595 1110.15H760.13v345.83H414.595z"/>
        <path opacity=".6" d="M608.174 749.14H953.71v345.83H608.174z"/>
        <path opacity=".598" d="M772.612 1110.94h283.582v283.824H772.612z"/>
        <path d="M773.856 1408.682h284.83v285.073h-284.83z"/>
        <path opacity=".6" d="M1075.646 1521.531h171.745v171.891h-171.745z"/>
        <path opacity=".7" d="M1261.058 1611.26l127.216-.054-.055 127.215-127.215.054M1274.493 1358.636l89.328-.037-.038 89.328-89.328.038M1272.78 1284.476l64.77-.028-.028 64.769-64.769.027"/>
        <path opacity=".6" d="M1446.283 1178.504h39.487v39.52h-39.487z"/>
        <path opacity=".5" d="M1409.647 1407.355h50.788v50.831h-50.788z"/>
        <path opacity=".6" d="M1277.757 1459.02l50.81-.02-.022 50.81-50.81.02"/>
        <path opacity=".8" d="M1109.598 1706.91l75.84-.033-.031 75.841-75.842.032M1107.567 1792.624h75.809v75.873h-75.81z"/>
        <path opacity=".7" d="M1229.914 1825.782l58.445-.025-.025 58.445-58.445.025M1322.662 1768.895h38.764v38.797h-38.764z"/>
        <path opacity=".8" d="M1137.598 1914.09h51.549v51.593h-51.55z"/>
        <path opacity=".7" d="M1196.922 1711.252h51.549v51.593h-51.549zM1200.863 1779.067h51.549v51.593h-51.55zM1261.226 1523.39l75.84-.033-.031 75.841-75.841.033"/>
        <path opacity=".6" d="M1353.524 1299.522h35.524v35.554h-35.524z"/>
        <path opacity=".5" d="M1534.607 1226.083h15.88v15.895h-15.88z"/>
        <path opacity=".6" d="M1446.244 1318.432h15.88v15.895h-15.88zM1474.076 1517.829h15.881v15.895h-15.88zM1408.34 1356.336h15.881v15.895h-15.88z"/>
        <path opacity=".5" d="M1412.245 1551.754h15.881v15.895h-15.88zM1665.625 1242.564h15.881v15.895h-15.881z"/>
        <path opacity=".6" d="M1352.83 1471.631h42.62v42.655h-42.62z"/>
        <path opacity=".4" d="M1621.84 1043.174h15.88v15.895h-15.88zM1577.99 999.323h15.88v15.895h-15.88z"/>
        <path opacity=".5" d="M1579.916 1156.855h15.88v15.895h-15.88z"/>
        <path opacity=".9" d="M813.61 1707.778h284.831v285.073h-284.83z"/>
        <path opacity=".8" d="M1068.712 1310.323l195.858-.083-.084 195.858-195.857.083"/>
        <path d="M438.509 1476.922h317.347v317.617H438.509z"/>
        <path opacity=".754" d="M964.997 882.708H1179.1v214.285H964.997z"/>
        <path opacity=".8" d="M1067.85 1110.822l187.76-.08-.08 187.76-187.76.08M1188.456 990.216l110.165-.046-.047 110.165-110.165.047"/>
        <path opacity=".6" d="M1189.628 901.342l79.98-.034-.034 79.98-79.98.034"/>
        <path d="M967.747 792.313h79.946v80.014h-79.946zM461.504 960.008h131.445v131.557H461.504z"/>
        <path opacity=".6" d="M1271.055 1182.683l93.848-.04-.04 93.848-93.847.04"/>
        <path opacity=".5" d="M1630.882 1169.674h13.643v13.655h-13.643z"/>
        <path opacity=".6" d="M1442.695 1082.78h45.76v45.8h-45.76zM1441.857 1243.083h32.688v32.716h-32.688zM1535.514 1396.587h32.688v32.716h-32.688zM1482.271 1354.157h25.73v25.752h-25.73zM1365.28 1052.56h47.58v47.62h-47.58z"/>
        <path opacity=".7" d="M1272.338 1113.631l57.954-.025-.025 57.954-57.954.025"/>
        <path opacity=".6" d="M1389.198 1148.243h31.575v31.602h-31.575z"/>
        <path opacity=".4" d="M1608.858 1100.01h9.894v9.903h-9.894zM1606.771 1317.366h9.894v9.903h-9.894zM1487.06 1472.956h9.894v9.903h-9.894z"/>
        <path opacity=".5" d="M1595.807 1224.682h9.894v9.903h-9.894z"/>
        <path opacity=".3" d="M1662.43 1006.573h10.508v10.517h-10.508zM1730.254 946.722h10.508v10.517h-10.508zM1522.848 998.655h10.508v10.517h-10.508zM1725.283 919.806l4.526-.002-.002 4.527-4.526.002M1583.653 1037.517l4.527-.002-.002 4.527-4.527.002M1708.297 1004.562l6.52-.003-.002 6.52-6.52.003M1701.345 939.757l4.527-.002-.002 4.527-4.527.002M1675.233 969.854h4.877v4.88h-4.877zM1671.213 1045.63h4.877v4.881h-4.877zM1627.364 997.791h4.877v4.881h-4.877z"/>
        <path opacity=".4" d="M1686.382 1090.253h18.365v18.38h-18.365z"/>
        <path opacity=".5" d="M1519.885 1313.592h18.365v18.38h-18.365z"/>
        <path opacity=".6" d="M1447.714 1002.03h18.365v18.38h-18.365z"/>
        <path opacity=".5" d="M1529.437 1083.753h18.365v18.38h-18.365z"/>
        <path opacity=".4" d="M1692.34 1148.078h18.364v18.38h-18.365z"/>
        <g opacity=".432">
            <path opacity=".5" d="M1378.577 39.847h-15.881V23.952h15.881z"/>
            <path opacity=".4" d="M1420.367 241.231h-15.881v-15.895h15.88z"/>
            <path opacity=".5" d="M1462.291 127.55h-15.88v-15.894h15.88zM1411.325 114.732h-13.643v-13.655h13.643z"/>
            <path opacity=".4" d="M1435.344 182.4h-9.894v-9.902h9.894z"/>
            <path opacity=".3" d="M1341.89 275.856h-10.508v-10.517h10.508zM1313.948 335.69h-10.508v-10.518h10.508zM1332.875 368.581l-4.527.002.002-4.526 4.527-.002M1375.73 409.442l-6.52.003.002-6.521 6.521-.003M1378.743 358.592l-4.526.002.001-4.527 4.527-.002M1360.989 320.537h-4.877v-4.88h4.877zM1370.993 238.776h-4.877v-4.881h4.877z"/>
            <path opacity=".4" d="M1355.825 194.154h-18.365v-18.38h18.365zM1351.862 134.333h-18.365v-18.38h18.365z"/>
        </g>
        <path opacity=".7" d="M1308.483 993.75h49.556v49.597h-49.556z"/>
        <path opacity=".6" d="M1375.593 1237.587h38.764v38.797h-38.764zM1379.687 990.32h38.764v38.797h-38.764zM1342.164 1143.456h25.945v25.968h-25.945zM1509.944 1039.46h21.96v21.978h-21.96zM1306.464 1051.6l49.576-.022-.02 49.577-49.577.021"/>
        <path opacity=".5" d="M1511.234 1145.795h46.729v46.768h-46.73z"/>
    </g>
</svg>
