<svg xmlns="http://www.w3.org/2000/svg" viewBox="0 0 1326.17 1968.9">
    <defs>
        <style>
            .cls-1,.cls-10,.cls-11,.cls-2,.cls-3,.cls-4,.cls-5,.cls-6,.cls-7,.cls-8,.cls-9{fill:#fff}.cls-2{opacity:.6}.cls-10,.cls-11,.cls-2,.cls-3,.cls-4,.cls-5,.cls-6,.cls-7,.cls-8,.cls-9{isolation:isolate}.cls-3,.cls-4{opacity:.6}.cls-5{opacity:.7}.cls-6{opacity:.5}.cls-7{opacity:.8}.cls-8{opacity:.4}.cls-9{opacity:.9}.cls-10{opacity:.75}.cls-11{opacity:.3}.cls-12{opacity:.43}
        </style>
    </defs>
    <title>
        squares
    </title>
    <g id="Layer_2" data-name="Layer 2">
        <g id="Layer_1-2" data-name="Layer 1">
            <path id="Rectangle-3-Copy" class="cls-1" d="M0 1086.2h345.53v345.83H0z"/>
            <path id="Rectangle-3-Copy-2" class="cls-2" d="M193.58 725.19h345.53v345.83H193.58z"/>
            <path id="Rectangle-3-Copy-3" class="cls-3" d="M358.02 1086.99H641.6v283.82H358.02z"/>
            <path id="Rectangle-3-Copy-12" class="cls-1" d="M359.26 1384.73h284.83v285.07H359.26z"/>
            <path id="Rectangle-3-Copy-24" class="cls-4" d="M661.05 1497.58H832.8v171.89H661.05z"/>
            <path id="Rectangle-3-Copy-53" class="cls-5" d="M846.46 1587.31l127.22-.06-.05 127.22-127.22.05"/>
            <path id="Rectangle-3-Copy-31" class="cls-5" d="M859.9 1334.68l89.33-.03-.04 89.32-89.33.04"/>
            <path id="Rectangle-3-Copy-37" class="cls-5" d="M858.19 1260.52l64.77-.02-.03 64.76-64.77.03"/>
            <path id="Rectangle-3-Copy-32" class="cls-4" d="M1031.69 1154.55h39.49v39.52h-39.49z"/>
            <path id="Rectangle-3-Copy-46" class="cls-6" d="M995.05 1383.4h50.79v50.83h-50.79z"/>
            <path id="Rectangle-3-Copy-40" class="cls-4" d="M863.16 1435.07l50.81-.02-.02 50.81-50.81.02"/>
            <path id="Rectangle-3-Copy-43" class="cls-7" d="M695 1682.96l75.84-.04-.03 75.85-75.84.03"/>
            <path id="Rectangle-3-Copy-44" class="cls-7" d="M692.97 1768.67h75.81v75.87h-75.81z"/>
            <path id="Rectangle-3-Copy-54" class="cls-5" d="M815.32 1801.83l58.44-.03-.02 58.45-58.45.03"/>
            <path id="Rectangle-3-Copy-56" class="cls-5" d="M908.07 1744.94h38.76v38.8h-38.76z"/>
            <path id="Rectangle-3-Copy-55" class="cls-7" d="M723 1890.14h51.55v51.59H723z"/>
            <path id="Rectangle-3-Copy-57" class="cls-5" d="M782.33 1687.3h51.55v51.59h-51.55z"/>
            <path id="Rectangle-3-Copy-87" class="cls-5" d="M786.27 1755.11h51.55v51.59h-51.55z"/>
            <path id="Rectangle-3-Copy-45" class="cls-5" d="M846.63 1499.44l75.84-.04-.03 75.85-75.84.03"/>
            <path id="Rectangle-3-Copy-33" class="cls-4" d="M938.93 1275.57h35.52v35.55h-35.52z"/>
            <path id="Rectangle-3-Copy-34" class="cls-6" d="M1120.01 1202.13h15.88v15.89h-15.88z"/>
            <path id="Rectangle-3-Copy-39" class="cls-4" d="M1031.65 1294.48h15.88v15.89h-15.88z"/>
            <path id="Rectangle-3-Copy-64" class="cls-4" d="M1059.48 1493.88h15.88v15.89h-15.88z"/>
            <path id="Rectangle-3-Copy-60" class="cls-4" d="M993.75 1332.38h15.88v15.89h-15.88z"/>
            <path id="Rectangle-3-Copy-52" class="cls-6" d="M997.65 1527.8h15.88v15.89h-15.88z"/>
            <path id="Rectangle-3-Copy-62" class="cls-6" d="M1251.03 1218.61h15.88v15.89h-15.88z"/>
            <path id="Rectangle-3-Copy-47" class="cls-4" d="M938.24 1447.68h42.62v42.66h-42.62z"/>
            <path id="Rectangle-3-Copy-35" class="cls-8" d="M1207.25 1019.22h15.88v15.89h-15.88z"/>
            <path id="Rectangle-3-Copy-88" class="cls-8" d="M1163.39 975.37h15.88v15.89h-15.88z"/>
            <path id="Rectangle-3-Copy-36" class="cls-6" d="M1165.32 1132.9h15.88v15.89h-15.88z"/>
            <path id="Rectangle-3-Copy-25" class="cls-9" d="M399.02 1683.83h284.83v285.07H399.02z"/>
            <path id="Rectangle-3-Copy-14" class="cls-7" d="M654.12 1286.37l195.86-.08-.09 195.86-195.86.08"/>
            <path id="Rectangle-3-Copy-13" class="cls-1" d="M23.91 1452.97h317.35v317.62H23.91z"/>
            <path id="Rectangle-3-Copy-4" class="cls-10" d="M550.4 858.76h214.1v214.28H550.4z"/>
            <path id="Rectangle-3-Copy-5" class="cls-7" d="M653.26 1086.87l187.75-.08-.07 187.76-187.76.08"/>
            <path id="Rectangle-3-Copy-6" class="cls-7" d="M773.86 966.26l110.17-.04-.05 110.16-110.16.05"/>
            <path id="Rectangle-3-Copy-7" class="cls-4" d="M775.03 877.39l79.98-.03-.03 79.98-79.98.03"/>
            <path id="Rectangle-3-Copy-41" class="cls-1" d="M553.15 768.36h79.95v80.01h-79.95z"/>
            <path id="Rectangle-3-Copy-66" class="cls-1" d="M46.91 936.06h131.45v131.56H46.91z"/>
            <path id="Rectangle-3-Copy-27" class="cls-4" d="M856.46 1158.73l93.85-.04-.04 93.85-93.85.04"/>
            <path id="Rectangle-3-Copy-38" class="cls-6" d="M1216.29 1145.72h13.64v13.65h-13.64z"/>
            <path id="Rectangle-3-Copy-28" class="cls-4" d="M1028.1 1058.83h45.76v45.8h-45.76z"/>
            <path id="Rectangle-3-Copy-29" class="cls-4" d="M1027.26 1219.13h32.69v32.72h-32.69z"/>
            <path id="Rectangle-3-Copy-61" class="cls-4" d="M1120.92 1372.64h32.69v32.72h-32.69z"/>
            <path id="Rectangle-3-Copy-92" class="cls-4" d="M1067.68 1330.2h25.73v25.75h-25.73z"/>
            <path id="Rectangle-3-Copy-15" class="cls-4" d="M950.69 1028.61h47.58v47.62h-47.58z"/>
            <path id="Rectangle-3-Copy-16" class="cls-5" d="M857.74 1089.68l57.96-.03-.03 57.96-57.95.02"/>
            <path id="Rectangle-3-Copy-8" class="cls-4" d="M974.6 1124.29h31.58v31.6H974.6z"/>
            <path id="Rectangle-3-Copy-21" class="cls-8" d="M1194.26 1076.06h9.89v9.9h-9.89z"/>
            <path id="Rectangle-3-Copy-63" class="cls-8" d="M1192.18 1293.41h9.89v9.9h-9.89z"/>
            <path id="Rectangle-3-Copy-65" class="cls-8" d="M1072.47 1449h9.89v9.9h-9.89z"/>
            <path id="Rectangle-3-Copy-49" class="cls-6" d="M1181.21 1200.73h9.89v9.9h-9.89z"/>
            <path id="Rectangle-3-Copy-30" class="cls-11" d="M1247.84 982.62h10.51v10.52h-10.51z"/>
            <path id="Rectangle-3-Copy-70" class="cls-11" d="M1315.66 922.77h10.51v10.52h-10.51z"/>
            <path id="Rectangle-3-Copy-90" class="cls-11" d="M1108.25 974.7h10.51v10.52h-10.51z"/>
            <path id="Rectangle-3-Copy-67" class="cls-11" d="M1310.69 895.85h4.52v4.53h-4.52"/>
            <path id="Rectangle-3-Copy-91" class="cls-11" d="M1169.06 1013.57l4.53-.01-.01 4.53h-4.52"/>
            <path id="Rectangle-3-Copy-68" class="cls-11" d="M1293.7 980.61h6.52v6.52h-6.52"/>
            <path id="Rectangle-3-Copy-69" class="cls-11" d="M1286.75 915.8h4.53v4.53h-4.53"/>
            <path id="Rectangle-3-Copy-42" class="cls-11" d="M1260.64 945.9h4.88v4.88h-4.88z"/>
            <path id="Rectangle-3-Copy-51" class="cls-11" d="M1256.62 1021.68h4.88v4.88h-4.88z"/>
            <path id="Rectangle-3-Copy-89" class="cls-11" d="M1212.77 973.84h4.88v4.88h-4.88z"/>
            <path id="Rectangle-3-Copy-26" class="cls-8" d="M1271.79 1066.3h18.36v18.38h-18.36z"/>
            <path id="Rectangle-3-Copy-48" class="cls-6" d="M1105.29 1289.64h18.36v18.38h-18.36z"/>
            <path id="Rectangle-3-Copy-22" class="cls-4" d="M1033.12 978.08h18.36v18.38h-18.36z"/>
            <path id="Rectangle-3-Copy-23" class="cls-6" d="M1114.84 1059.8h18.36v18.38h-18.36z"/>
            <path id="Rectangle-3-Copy-50" class="cls-8" d="M1277.75 1124.13h18.36v18.38h-18.36z"/>
            <g id="Group-4" class="cls-12">
                <path id="Rectangle-3-Copy-73" class="cls-6" d="M948.1 0h15.88v15.89H948.1z"/>
                <path id="Rectangle-3-Copy-74" class="cls-8" d="M989.89 201.38h15.88v15.89h-15.88z"/>
                <path id="Rectangle-3-Copy-75" class="cls-6" d="M1031.82 87.7h15.88v15.89h-15.88z"/>
                <path id="Rectangle-3-Copy-76" class="cls-6" d="M983.09 77.13h13.64v13.65h-13.64z"/>
                <path id="Rectangle-3-Copy-77" class="cls-8" d="M1010.86 148.55h9.89v9.9h-9.89z"/>
                <path id="Rectangle-3-Copy-78" class="cls-11" d="M916.79 241.39h10.51v10.52h-10.51z"/>
                <path id="Rectangle-3-Copy-79" class="cls-11" d="M888.84 301.22h10.51v10.52h-10.51z"/>
                <path id="Rectangle-3-Copy-80" class="cls-11" d="M918.28 344.63h-4.53l.01-4.52 4.52-.01"/>
                <path id="Rectangle-3-Copy-81" class="cls-11" d="M961.14 385.49h-6.52v-6.52h6.52"/>
                <path id="Rectangle-3-Copy-82" class="cls-11" d="M964.15 334.64h-4.53v-4.52l4.53-.01"/>
                <path id="Rectangle-3-Copy-83" class="cls-11" d="M941.52 291.7h4.88v4.88h-4.88z"/>
                <path id="Rectangle-3-Copy-84" class="cls-11" d="M951.52 209.94h4.88v4.88h-4.88z"/>
                <path id="Rectangle-3-Copy-85" class="cls-8" d="M922.87 151.82h18.36v18.38h-18.36z"/>
                <path id="Rectangle-3-Copy-86" class="cls-8" d="M918.9 92h18.36v18.38H918.9z"/>
            </g>
            <path id="Rectangle-3-Copy-10" class="cls-5" d="M893.89 969.8h49.56v49.6h-49.56z"/>
            <path id="Rectangle-3-Copy-17" class="cls-4" d="M961 1213.63h38.76v38.8H961z"/>
            <path id="Rectangle-3-Copy-18" class="cls-4" d="M965.09 966.37h38.76v38.8h-38.76z"/>
            <path id="Rectangle-3-Copy-20" class="cls-4" d="M927.57 1119.5h25.95v25.97h-25.95z"/>
            <path id="Rectangle-3-Copy-19" class="cls-4" d="M1095.35 1015.51h21.96v21.98h-21.96z"/>
            <path id="Rectangle-3-Copy-11" class="cls-4" d="M891.87 1027.65l49.58-.02-.03 49.57-49.57.02"/>
            <path id="Rectangle-3-Copy-9" class="cls-6" d="M1096.64 1121.84h46.73v46.77h-46.73z"/>
        </g>
    </g>
</svg>
