<svg xmlns="http://www.w3.org/2000/svg" viewBox="0 0 45 45">
    <path class="cls-1" d="M37.5 14.12a13 13 0 0 1-3.54 1 6 6 0 0 0 2.72-3.43 12.24 12.24 0 0 1-3.93 1.49 5.85 5.85 0 0 0-4.48-1.93 6.15 6.15 0 0 0-6.15 6.15 5.65 5.65 0 0 0 .15 1.41 17.42 17.42 0 0 1-7.09-1.9 17.44 17.44 0 0 1-5.62-4.54 6.09 6.09 0 0 0-.85 3.11 5.8 5.8 0 0 0 2.67 5.13 7.26 7.26 0 0 1-2.93-.76v.06A5.85 5.85 0 0 0 9.9 23.8a6.15 6.15 0 0 0 3.6 2.12 5.71 5.71 0 0 1-1.49.23 8.25 8.25 0 0 1-1.14-.15 6.25 6.25 0 0 0 2.18 3 5.85 5.85 0 0 0 3.56 1.23A12.16 12.16 0 0 1 9 33a11.81 11.81 0 0 1-1.46-.09 17.26 17.26 0 0 0 9.43 2.75 17.93 17.93 0 0 0 6.15-1A15.85 15.85 0 0 0 28 31.8a18.48 18.48 0 0 0 3.53-4 17.73 17.73 0 0 0 2.92-9.68 7.81 7.81 0 0 0 0-.79 12 12 0 0 0 3.05-3.21zM45 8.44v28.12A8.45 8.45 0 0 1 36.56 45H8.44a8.13 8.13 0 0 1-6-2.48 8.13 8.13 0 0 1-2.48-6V8.44a8.13 8.13 0 0 1 2.48-6 8.13 8.13 0 0 1 6-2.44h28.12a8.13 8.13 0 0 1 6 2.48A8.13 8.13 0 0 1 45 8.44z"/>
</svg>
