<?xml version="1.0" encoding="UTF-8" standalone="no"?>
<svg width="45px" height="45px" viewBox="0 0 45 45" version="1.1" xmlns="http://www.w3.org/2000/svg" xmlns:xlink="http://www.w3.org/1999/xlink">
    <!-- Generator: Sketch 42 (36781) - http://www.bohemiancoding.com/sketch -->
    <title>twitter-square</title>
    <desc>Created with Sketch.</desc>
    <defs></defs>
    <g id="Desktop" stroke="none" stroke-width="1" fill="none" fill-rule="evenodd">
        <g id="Desktop-HD" transform="translate(-118.000000, -2770.000000)" fill-rule="nonzero" fill="#FFFFFF">
            <g id="Screen-3" transform="translate(-660.000000, 1222.000000)">
                <g id="twitter-square" transform="translate(778.000000, 1548.000000)">
                    <path d="M37.5,14.1210938 C36.40625,14.609375 35.2246094,14.9414063 33.9550781,15.1171875 C35.2832031,14.3359375 36.1914063,13.1933594 36.6796875,11.6894531 C35.4101563,12.4316406 34.1015625,12.9296875 32.7539063,13.1835938 C31.5625,11.8945312 30.0683594,11.25 28.2714844,11.25 C26.5722656,11.25 25.1220703,11.8505859 23.9208984,13.0517578 C22.7197266,14.2529297 22.1191406,15.703125 22.1191406,17.4023438 C22.1191406,17.96875 22.1679688,18.4375 22.265625,18.8085938 C19.7460938,18.671875 17.3828125,18.0371094 15.1757813,16.9042969 C12.96875,15.7714844 11.09375,14.2578125 9.55078125,12.3632813 C8.984375,13.3398438 8.70117188,14.375 8.70117188,15.46875 C8.70117188,17.6953125 9.58984375,19.4042969 11.3671875,20.5957031 C10.4492188,20.5761719 9.47265625,20.3222656 8.4375,19.8339844 L8.4375,19.8925781 C8.4375,21.3574219 8.92578125,22.6611328 9.90234375,23.8037109 C10.8789063,24.9462891 12.0800781,25.6542969 13.5058594,25.9277344 C12.9394531,26.0839844 12.4414063,26.1621094 12.0117188,26.1621094 C11.7578125,26.1621094 11.3769531,26.1230469 10.8691406,26.0449219 C11.2792969,27.2753906 12.0068359,28.2910156 13.0517578,29.0917969 C14.0966797,29.8925781 15.2832031,30.3027344 16.6113281,30.3222656 C14.3457031,32.0800781 11.796875,32.9589844 8.96484375,32.9589844 C8.45703125,32.9589844 7.96875,32.9296875 7.5,32.8710938 C10.390625,34.7070313 13.5351563,35.625 16.9335938,35.625 C19.1210938,35.625 21.171875,35.2783203 23.0859375,34.5849609 C25,33.8916016 26.640625,32.9638672 28.0078125,31.8017578 C29.375,30.6396484 30.5517578,29.3017578 31.5380859,27.7880859 C32.5244141,26.2744141 33.2568359,24.6923828 33.7353516,23.0419922 C34.2138672,21.3916016 34.453125,19.7460938 34.453125,18.1054688 C34.453125,17.7539063 34.4433594,17.4902344 34.4238281,17.3144531 C35.6542969,16.4355469 36.6796875,15.3710938 37.5,14.1210938 Z M45,8.4375 L45,36.5625 C45,38.8867187 44.1748047,40.8740234 42.5244141,42.5244141 C40.8740234,44.1748047 38.8867188,45 36.5625,45 L8.4375,45 C6.11328125,45 4.12597656,44.1748047 2.47558594,42.5244141 C0.825195313,40.8740234 0,38.8867187 0,36.5625 L0,8.4375 C0,6.11328125 0.825195313,4.12597656 2.47558594,2.47558594 C4.12597656,0.825195313 6.11328125,0 8.4375,0 L36.5625,0 C38.8867188,0 40.8740234,0.825195313 42.5244141,2.47558594 C44.1748047,4.12597656 45,6.11328125 45,8.4375 Z" id="Shape"></path>
                </g>
            </g>
        </g>
    </g>
</svg>